<?xml version="1.0" standalone="no"?>
<!DOCTYPE svg PUBLIC "-//W3C//DTD SVG 20010904//EN"
 "http://www.w3.org/TR/2001/REC-SVG-20010904/DTD/svg10.dtd">
<svg version="1.0" xmlns="http://www.w3.org/2000/svg"
 width="477.000000pt" height="500.000000pt" viewBox="0 0 477.000000 500.000000"
 preserveAspectRatio="xMidYMid meet">
<metadata>
Created by potrace 1.11, written by Peter Selinger 2001-2013
</metadata>
<g transform="translate(0.000000,500.000000) scale(0.100000,-0.100000)"
fill="#000000" stroke="none">
<path d="M2327 4668 c-9 -7 -19 -25 -22 -39 -6 -24 -2 -30 35 -50 39 -22 46
-34 52 -89 4 -35 32 -37 80 -4 57 40 104 38 157 -4 22 -17 42 -28 45 -24 3 4
0 28 -5 52 -5 24 -7 57 -3 73 4 20 2 32 -7 38 -20 12 -96 11 -120 -2 -17 -9
-28 -5 -66 25 -36 28 -55 36 -88 36 -23 0 -49 -6 -58 -12z"/>
<path d="M2723 4635 c-11 -8 -23 -25 -27 -39 -9 -37 28 -130 67 -168 37 -35
80 -132 80 -180 0 -46 20 -27 49 48 19 47 26 78 21 99 -15 76 6 129 58 147 37
13 33 28 -13 51 -42 20 -64 15 -72 -19 -4 -13 -10 -24 -15 -24 -4 0 -34 23
-65 50 -31 28 -58 50 -59 50 -2 0 -12 -7 -24 -15z"/>
<path d="M2211 4564 c-27 -35 -61 -145 -61 -198 1 -53 29 -115 69 -149 56 -46
70 -26 27 38 -47 69 -47 157 0 250 23 45 25 56 15 69 -18 22 -26 20 -50 -10z"/>
<path d="M2291 4514 c-13 -9 -29 -32 -37 -50 -19 -44 -18 -148 0 -163 8 -7 17
-8 19 -3 15 23 37 101 37 130 0 22 8 39 25 54 19 16 22 24 14 35 -15 17 -30
16 -58 -3z"/>
<path d="M2945 4496 c-14 -21 -16 -39 -11 -89 5 -51 2 -69 -13 -98 -24 -44
-32 -120 -13 -127 14 -4 86 68 107 108 23 46 37 192 19 210 -5 5 -24 12 -41
16 -26 5 -34 2 -48 -20z"/>
<path d="M2487 4472 c-20 -22 -21 -36 -5 -61 16 -26 3 -51 -26 -51 -18 0 -33
12 -56 45 -17 25 -37 45 -45 45 -23 0 -18 -41 10 -83 43 -62 107 -84 154 -51
17 12 36 15 72 11 45 -6 49 -4 55 17 13 52 1 80 -50 114 -55 36 -85 40 -109
14z"/>
<path d="M2680 4383 c0 -30 -33 -93 -49 -93 -6 0 -21 5 -34 11 -21 9 -32 7
-71 -16 -57 -34 -81 -29 -142 27 -58 53 -78 46 -82 -32 -3 -44 3 -65 33 -125
62 -125 98 -142 293 -137 61 2 75 5 90 24 9 11 33 39 52 61 33 38 34 43 38
131 3 91 3 91 -30 128 -20 22 -46 39 -65 43 -31 6 -33 5 -33 -22z"/>
<path d="M3085 4278 c-22 -11 -56 -36 -75 -55 -43 -42 -128 -93 -156 -93 -19
0 -84 -57 -84 -74 0 -14 157 1 255 24 153 37 235 91 235 155 0 45 -17 52 -70
31 -52 -21 -53 -21 -46 9 8 31 -5 32 -59 3z"/>
<path d="M1443 4168 c-27 -26 -34 -29 -47 -19 -9 8 -31 11 -53 9 -21 -3 -46 0
-56 6 -36 23 -77 -30 -77 -101 0 -43 43 -148 78 -192 17 -21 24 -23 58 -16 73
14 96 8 137 -35 43 -44 46 -45 70 -27 14 10 18 37 21 181 l5 169 -31 29 c-39
36 -66 35 -105 -4z"/>
<path d="M1836 4165 c-9 -14 -32 -31 -51 -39 l-34 -15 3 -73 c2 -61 5 -73 19
-72 9 0 35 1 58 2 36 2 42 6 55 37 21 51 19 148 -4 168 -24 22 -27 22 -46 -8z"/>
<path d="M1638 4142 c-25 -3 -27 -6 -33 -80 -11 -132 -10 -169 4 -190 11 -19
49 1 86 46 23 27 29 46 33 103 4 58 2 73 -14 90 -25 28 -44 35 -76 31z"/>
<path d="M2177 4080 c-44 -8 -120 -60 -125 -85 -2 -9 9 -30 24 -46 38 -39 104
-41 159 -3 37 25 40 25 72 10 43 -20 82 -20 111 0 37 26 25 54 -39 90 -60 33
-137 47 -202 34z"/>
<path d="M2762 4023 c-28 -5 -24 -27 6 -31 21 -3 72 -55 72 -73 0 -15 17 -10
24 7 3 8 -5 34 -17 57 -24 42 -39 49 -85 40z"/>
<path d="M1063 3968 c-11 -13 -26 -33 -32 -45 -9 -18 -20 -23 -50 -23 -69 0
-82 -52 -21 -82 21 -11 57 -18 90 -18 44 0 64 6 99 30 24 17 57 30 73 30 41 0
36 28 -15 84 -38 40 -49 46 -83 46 -29 0 -46 -6 -61 -22z"/>
<path d="M2586 3982 c-3 -5 -6 -78 -7 -163 -1 -85 -5 -194 -9 -244 -5 -49 -11
-168 -14 -263 -5 -159 -4 -173 12 -170 23 4 29 47 42 283 14 270 29 482 36
528 6 36 6 37 -24 37 -17 0 -33 -4 -36 -8z"/>
<path d="M3330 3934 c-6 -14 -10 -30 -10 -35 0 -16 -27 -21 -49 -9 -18 9 -25
7 -46 -16 -31 -34 -31 -45 0 -74 30 -29 75 -102 75 -124 0 -36 23 -12 55 58
24 50 35 88 35 119 0 80 -40 134 -60 81z"/>
<path d="M1808 3940 c-69 -9 -84 -20 -100 -72 -11 -37 -14 -39 -41 -34 -24 5
-35 0 -63 -28 -19 -19 -34 -39 -34 -46 0 -6 16 -18 35 -26 20 -8 48 -29 63
-46 27 -29 29 -30 58 -16 16 9 55 19 88 23 50 6 65 13 103 48 44 40 45 43 40
88 -3 26 -13 63 -21 83 -17 40 -19 40 -128 26z"/>
<path d="M2978 3899 c-32 -16 -58 -34 -58 -39 0 -13 45 -23 74 -16 13 3 49 -1
80 -9 31 -8 58 -15 59 -15 2 0 20 21 41 46 48 57 41 64 -64 63 -63 0 -84 -5
-132 -30z"/>
<path d="M3425 3863 c-5 -10 -14 -36 -21 -58 -27 -90 -48 -133 -100 -211 -30
-45 -61 -87 -69 -94 -27 -23 -18 -40 18 -34 120 21 182 63 223 149 28 59 29
105 5 195 -17 67 -41 89 -56 53z"/>
<path d="M2764 3849 c-43 -56 -37 -105 19 -169 18 -21 45 -54 60 -74 35 -45
103 -96 128 -96 31 0 32 41 4 115 -15 39 -29 79 -32 90 -9 32 -52 123 -61 129
-5 3 -31 8 -58 11 -36 5 -53 3 -60 -6z"/>
<path d="M1355 3833 c-29 -10 -46 -11 -63 -4 -35 16 -73 13 -109 -9 -40 -24
-40 -30 -8 -78 22 -33 23 -38 10 -57 -8 -11 -20 -30 -25 -42 -31 -74 65 -70
173 6 23 16 61 35 83 40 25 7 48 21 58 36 14 22 15 29 2 59 -14 33 -51 67 -71
65 -5 -1 -28 -8 -50 -16z"/>
<path d="M2985 3813 c-33 -8 -40 -21 -25 -48 17 -32 30 -32 63 3 44 46 30 61
-38 45z"/>
<path d="M3085 3785 c-74 -55 -95 -80 -95 -113 0 -18 7 -49 16 -70 10 -25 13
-51 9 -83 -10 -73 21 -92 108 -68 47 13 143 107 152 149 4 17 4 45 0 63 -7 33
-49 103 -75 124 -21 17 -91 15 -115 -2z"/>
<path d="M1058 3767 c-26 -7 -38 -16 -38 -29 0 -10 7 -18 15 -18 21 0 19 -24
-5 -45 -24 -22 -27 -70 -4 -79 27 -10 71 -7 83 8 6 7 22 34 36 60 24 44 24 48
9 72 -15 22 -47 46 -56 43 -2 -1 -20 -6 -40 -12z"/>
<path d="M2226 3728 c-30 -42 -18 -57 87 -112 37 -19 82 -46 98 -60 30 -26 69
-35 69 -16 0 32 -45 121 -77 152 -64 62 -148 78 -177 36z"/>
<path d="M1512 3726 c-32 -41 -8 -83 63 -115 38 -17 45 -25 55 -63 21 -77 20
-75 35 -48 28 50 12 155 -28 188 -29 25 -115 51 -125 38z"/>
<path d="M2003 3733 c-77 -15 -178 -274 -151 -384 12 -44 23 -42 47 10 30 65
88 146 122 171 50 37 92 82 113 123 18 32 18 39 6 61 -12 23 -19 26 -64 25
-28 -1 -61 -4 -73 -6z"/>
<path d="M2680 3687 c-31 -15 -37 -52 -14 -78 17 -19 17 -20 -4 -35 -27 -19
-27 -27 -1 -80 23 -48 58 -66 196 -99 71 -17 72 -17 107 5 46 28 50 65 9 81
-70 26 -96 46 -148 107 -31 37 -64 77 -75 90 -21 25 -35 27 -70 9z"/>
<path d="M1424 3672 c-37 -5 -63 -45 -85 -131 -11 -45 -18 -85 -16 -88 3 -3
18 1 33 9 38 18 97 132 92 178 -2 29 -7 34 -24 32z"/>
<path d="M2155 3627 c-4 -13 -5 -43 -3 -68 l3 -44 50 -1 c28 -1 93 -5 145 -8
79 -6 92 -5 76 6 -11 7 -29 22 -40 34 -28 28 -177 104 -204 104 -14 0 -24 -8
-27 -23z"/>
<path d="M4195 3610 c-82 -17 -303 -108 -366 -150 -60 -41 -209 -184 -209
-202 0 -16 27 -8 46 13 28 32 217 117 308 140 50 13 113 20 168 20 l88 0 17
32 c8 17 41 55 71 84 30 29 52 56 48 60 -10 11 -126 13 -171 3z"/>
<path d="M1472 3598 c-7 -7 -12 -19 -12 -28 0 -24 52 -171 98 -277 22 -51 48
-115 57 -143 12 -38 21 -50 33 -48 10 2 16 10 15 18 -5 43 -37 154 -64 225
-17 44 -45 120 -62 169 -33 91 -43 106 -65 84z"/>
<path d="M2062 3483 c-31 -67 -34 -151 -8 -202 19 -36 36 -41 36 -8 0 29 46
116 73 138 l21 17 -25 33 c-15 19 -29 44 -33 57 -12 38 -36 25 -64 -35z"/>
<path d="M3679 3530 c-106 -18 -216 -103 -265 -204 -19 -38 -34 -77 -34 -87 0
-10 -4 -21 -10 -24 -5 -3 -10 -13 -10 -22 0 -21 61 -11 136 22 31 14 63 25 70
25 8 0 22 13 32 28 45 74 158 194 206 219 24 12 26 17 15 28 -19 18 -84 25
-140 15z"/>
<path d="M2212 3492 c-14 -4 -16 -32 -3 -32 6 0 39 -22 75 -49 35 -27 67 -47
69 -44 7 7 -23 96 -38 111 -12 13 -79 22 -103 14z"/>
<path d="M2469 3479 c-8 -17 -8 -29 4 -58 9 -20 21 -53 27 -73 6 -21 16 -38
21 -38 14 0 10 117 -5 155 -17 40 -30 44 -47 14z"/>
<path d="M3050 3407 c0 -1 9 -20 20 -42 11 -22 20 -50 20 -64 0 -69 23 -201
36 -201 7 0 15 8 18 18 8 27 -1 184 -13 215 -6 16 -11 39 -11 53 0 21 -5 24
-35 24 -19 0 -35 -1 -35 -3z"/>
<path d="M4250 3399 c-19 -5 -51 -6 -71 -3 -20 3 -63 -2 -97 -10 -33 -9 -82
-16 -110 -16 -40 0 -70 -10 -150 -50 -90 -45 -173 -112 -158 -127 7 -8 130 15
206 37 87 26 306 50 461 50 124 0 189 6 189 19 0 3 -33 21 -73 40 -39 19 -83
42 -96 53 -26 19 -46 21 -101 7z"/>
<path d="M2187 3269 c-12 -7 -15 -17 -11 -34 12 -47 -37 -90 -51 -45 -14 45
-104 32 -129 -19 -7 -14 -10 -34 -7 -45 7 -17 9 -16 24 8 10 15 27 26 40 26
21 0 148 -83 155 -102 2 -4 11 -17 21 -29 l18 -22 27 29 c25 26 27 34 22 81
-9 81 -28 125 -61 144 -22 13 -35 15 -48 8z"/>
<path d="M1847 3226 c-12 -13 -14 -23 -7 -42 17 -43 11 -47 -24 -20 -38 29
-58 27 -74 -9 -6 -13 -23 -31 -37 -41 -32 -21 -31 -26 5 -67 42 -48 116 -65
190 -44 38 11 59 13 73 6 27 -15 29 -7 12 33 -17 42 -22 102 -11 140 7 24 5
29 -20 39 -54 20 -90 22 -107 5z"/>
<path d="M1040 3217 c-25 -6 -44 -16 -43 -20 2 -5 51 -9 110 -11 97 -2 114 -5
163 -30 30 -16 70 -40 88 -54 24 -18 32 -21 32 -9 0 20 -71 92 -112 113 -42
22 -176 28 -238 11z"/>
<path d="M3495 3174 c-165 -51 -183 -62 -154 -91 7 -7 47 3 137 34 132 45 149
54 138 72 -10 15 -30 13 -121 -15z"/>
<path d="M3728 3152 c-49 -8 -88 -19 -88 -23 0 -5 22 -24 49 -42 27 -17 77
-53 112 -78 55 -41 274 -159 292 -159 17 0 3 31 -50 110 -31 47 -70 100 -87
119 -34 37 -114 92 -130 90 -6 -1 -50 -9 -98 -17z"/>
<path d="M963 3153 c-24 -9 -13 -32 40 -76 65 -56 122 -77 213 -77 73 0 184
18 184 29 0 17 -69 72 -107 85 -95 33 -288 57 -330 39z"/>
<path d="M2025 3104 c-8 -20 -15 -44 -15 -53 0 -18 37 -56 82 -84 14 -9 36
-36 48 -61 23 -45 24 -86 4 -171 -7 -29 -7 -29 17 -14 32 20 89 133 89 177 0
19 -14 62 -30 96 -24 48 -43 70 -90 104 -33 23 -67 42 -75 42 -8 0 -22 -16
-30 -36z"/>
<path d="M3160 3100 c-25 -36 -28 -36 -86 -10 -25 12 -53 18 -63 15 -36 -11
-71 -53 -71 -85 0 -16 -5 -39 -12 -49 -9 -14 -8 -26 2 -50 15 -38 49 -63 115
-85 48 -16 51 -16 77 4 39 29 123 60 162 60 40 0 46 11 46 84 0 112 -116 192
-170 116z"/>
<path d="M2383 3103 c-15 -6 -18 -129 -4 -138 5 -3 27 1 48 9 51 19 229 72
277 83 46 10 57 27 24 38 -25 8 -325 15 -345 8z"/>
<path d="M2795 3070 c-9 -15 1 -26 46 -49 32 -17 44 -19 55 -10 23 19 17 29
-28 49 -49 22 -64 24 -73 10z"/>
<path d="M3477 3071 c-80 -13 -127 -82 -127 -186 0 -29 -3 -36 -15 -32 -19 8
-31 -11 -16 -26 9 -9 14 -9 19 0 4 7 21 11 37 10 27 -2 30 1 36 36 9 58 39 92
80 92 25 0 36 -6 45 -24 9 -18 62 -48 90 -51 1 0 5 11 8 25 7 29 32 44 80 47
20 2 36 8 36 15 0 19 -52 54 -69 47 -45 -19 -58 -16 -79 20 -23 38 -36 41
-125 27z"/>
<path d="M1598 3029 c-26 -15 -22 -38 8 -49 33 -13 144 -13 144 0 0 11 -100
60 -121 60 -8 0 -22 -5 -31 -11z"/>
<path d="M2670 3014 c-79 -14 -196 -59 -243 -96 -10 -8 -32 -47 -48 -88 -17
-41 -48 -99 -70 -127 -58 -78 -60 -92 -6 -52 25 19 65 45 88 59 24 14 57 37
75 53 17 15 65 42 105 61 74 33 168 111 203 167 15 24 15 27 1 33 -9 3 -17 5
-18 5 -1 -1 -40 -8 -87 -15z"/>
<path d="M2270 3000 c-16 -16 -18 -24 -8 -50 9 -28 8 -86 -3 -129 -5 -20 28
-26 56 -11 50 27 57 87 20 160 -28 55 -36 59 -65 30z"/>
<path d="M1430 2999 c-19 -4 -70 -15 -112 -24 -93 -19 -107 -41 -20 -31 31 4
97 12 147 17 78 8 118 20 104 32 -10 9 -87 13 -119 6z"/>
<path d="M1926 2983 c-4 -5 -40 -10 -79 -13 -44 -3 -72 -10 -75 -18 -6 -18 62
-82 87 -82 12 0 26 11 35 28 8 15 28 37 45 50 17 12 31 27 31 32 0 12 -33 13
-44 3z"/>
<path d="M897 2959 c-38 -5 -101 -22 -140 -38 -40 -16 -83 -33 -97 -36 -14 -4
-66 -27 -117 -51 -51 -24 -95 -44 -99 -44 -3 0 -33 -23 -67 -51 -33 -27 -73
-57 -88 -65 -29 -15 -86 -100 -75 -111 3 -4 19 5 34 19 39 37 214 117 291 133
37 8 82 19 101 25 19 5 55 10 80 10 55 0 159 47 250 113 34 25 86 56 116 69
29 12 54 26 54 31 0 9 -156 7 -243 -4z"/>
<path d="M1958 2930 c-37 -23 -48 -36 -48 -55 0 -20 -5 -25 -27 -26 -131 -5
-146 -8 -165 -27 -43 -43 9 -119 105 -152 114 -41 203 -39 256 6 32 26 61 106
61 164 0 31 -32 97 -54 112 -24 17 -82 7 -128 -22z"/>
<path d="M1655 2920 c-42 -34 -57 -37 -75 -15 -16 19 -34 19 -50 0 -24 -29 57
-125 105 -125 15 0 31 13 49 40 18 28 33 40 50 40 13 0 29 7 36 15 11 13 8 21
-15 45 -36 38 -53 38 -100 0z"/>
<path d="M3452 2928 c-7 -7 -12 -27 -12 -44 0 -44 -16 -84 -47 -116 l-26 -27
27 -36 c31 -40 63 -46 92 -14 32 36 50 40 116 29 60 -9 63 -9 91 18 34 31 97
151 97 183 0 19 -4 21 -31 15 -17 -3 -45 -6 -60 -6 -23 0 -32 -7 -41 -27 -24
-55 -58 -81 -58 -44 0 19 -18 31 -49 31 -10 0 -23 11 -29 25 -13 27 -49 34
-70 13z"/>
<path d="M1051 2893 c-79 -39 -189 -162 -250 -279 -48 -93 -110 -364 -84 -364
6 0 28 30 49 67 22 37 63 92 92 124 37 41 52 65 52 85 0 71 19 103 124 207
109 108 142 150 131 167 -10 15 -76 12 -114 -7z"/>
<path d="M1215 2866 c-53 -36 -220 -210 -244 -254 -26 -48 -54 -185 -58 -284
-5 -106 5 -123 30 -59 17 41 84 130 146 193 95 97 142 169 176 273 18 56 37
91 62 116 39 41 36 45 -22 47 -30 1 -52 -7 -90 -32z"/>
<path d="M2843 2884 c-40 -17 -36 -30 25 -71 60 -41 134 -57 179 -38 38 16 43
35 11 35 -34 1 -99 34 -127 64 -27 29 -41 31 -88 10z"/>
<path d="M3252 2864 c2 -11 11 -20 22 -22 13 -3 17 1 14 14 -2 11 -11 20 -22
22 -13 3 -17 -1 -14 -14z"/>
<path d="M1407 2840 c-14 -16 -38 -55 -52 -87 -25 -52 -27 -65 -23 -138 3 -44
13 -98 22 -120 31 -74 134 -191 152 -173 2 3 0 16 -4 29 -5 13 -12 112 -16
219 -7 211 -19 300 -41 300 -7 0 -24 -13 -38 -30z"/>
<path d="M3203 2853 c-18 -7 -16 -32 2 -39 23 -9 48 15 34 32 -12 15 -16 16
-36 7z"/>
<path d="M3135 2820 c-7 -12 2 -30 16 -30 5 0 9 9 9 20 0 21 -15 27 -25 10z"/>
<path d="M3270 2795 c0 -8 7 -15 15 -15 8 0 15 7 15 15 0 8 -7 15 -15 15 -8 0
-15 -7 -15 -15z"/>
<path d="M3344 2795 c-3 -8 -3 -19 0 -24 10 -16 36 -1 36 20 0 22 -28 26 -36
4z"/>
<path d="M3187 2784 c-16 -16 -6 -35 16 -32 12 2 22 10 22 18 0 16 -26 25 -38
14z"/>
<path d="M3054 2751 c-31 -19 -74 -70 -74 -88 0 -19 36 -42 80 -52 45 -10 61
-23 103 -91 40 -63 114 -52 148 23 34 76 22 130 -31 141 -18 3 -43 15 -57 26
-14 11 -32 20 -39 20 -7 0 -28 9 -46 20 -41 25 -45 25 -84 1z"/>
<path d="M3265 2750 c-9 -15 4 -30 26 -30 12 0 19 7 19 20 0 21 -33 29 -45 10z"/>
<path d="M2477 2732 c-16 -17 -87 -280 -87 -321 0 -12 4 -21 9 -21 12 0 111
309 111 348 0 17 -14 15 -33 -6z"/>
<path d="M2803 2733 c-29 -19 -30 -43 -2 -43 11 0 35 -16 54 -36 29 -30 39
-35 72 -32 35 3 38 6 39 33 0 17 6 40 13 53 6 12 9 27 6 32 -10 17 -157 11
-182 -7z"/>
<path d="M3507 2680 c-45 -39 -99 -42 -123 -5 -18 28 -50 35 -40 9 3 -9 6 -24
6 -34 0 -24 54 -86 91 -106 41 -21 110 -17 189 10 84 30 130 60 130 86 0 21
-39 36 -66 26 -8 -3 -28 4 -44 15 -18 14 -37 20 -51 16 -12 -3 -30 -2 -40 4
-14 7 -26 2 -52 -21z"/>
<path d="M644 2690 c-68 -14 -132 -50 -192 -109 -45 -44 -65 -75 -96 -146 -34
-81 -39 -101 -43 -201 -3 -62 -2 -125 1 -140 7 -28 8 -28 22 -9 9 11 34 58 58
105 52 105 123 227 136 235 6 3 29 34 52 68 22 34 72 90 109 125 38 35 69 68
69 73 0 11 -58 10 -116 -1z"/>
<path d="M1832 2508 c67 -131 87 -164 106 -166 23 -3 29 7 13 23 -5 6 -37 66
-72 135 -64 128 -92 170 -116 170 -8 0 17 -60 69 -162z"/>
<path d="M1282 2633 c-4 -10 -7 -56 -7 -103 0 -75 4 -92 30 -144 41 -80 189
-215 212 -193 13 14 -40 106 -81 140 -57 47 -110 152 -126 245 -6 39 -14 72
-16 72 -3 0 -8 -8 -12 -17z"/>
<path d="M2073 2643 c-18 -7 -16 -23 11 -84 12 -30 36 -83 51 -119 15 -36 42
-95 61 -131 18 -37 40 -92 49 -123 19 -64 35 -81 35 -36 0 31 -32 125 -115
335 -24 61 -45 121 -47 135 -3 24 -21 34 -45 23z"/>
<path d="M2890 2588 c-46 -15 -52 -26 -34 -60 18 -34 68 -49 112 -34 18 6 27
3 38 -13 20 -29 52 -26 86 6 32 31 35 52 10 83 -15 18 -30 22 -97 25 -45 3
-95 -1 -115 -7z"/>
<path d="M2635 2561 c-67 -25 -136 -63 -148 -82 -6 -10 1 -36 24 -87 19 -39
36 -72 39 -72 3 0 14 15 24 33 24 43 113 117 161 134 52 18 67 32 63 62 -3 24
-7 26 -58 28 -33 1 -75 -5 -105 -16z"/>
<path d="M3097 2435 c-30 -47 -31 -60 -53 -485 -5 -104 -14 -193 -32 -305 -4
-22 -7 -67 -7 -100 0 -47 3 -60 15 -60 10 0 17 16 22 55 4 30 16 111 27 180
11 69 22 184 26 255 7 164 24 375 35 440 5 28 5 53 2 57 -4 4 -20 -12 -35 -37z"/>
<path d="M3282 2468 c-11 -15 -20 -43 -62 -217 -16 -68 -30 -140 -30 -159 0
-32 2 -35 15 -21 8 8 23 64 34 124 11 61 31 143 45 184 14 41 26 80 26 88 0
16 -14 17 -28 1z"/>
<path d="M2428 2383 c-26 -31 -27 -39 -13 -94 9 -30 18 -93 22 -141 3 -49 9
-88 13 -88 13 0 31 90 40 190 6 81 5 98 -9 119 -22 32 -34 35 -53 14z"/>
<path d="M2309 2344 c-11 -14 -10 -29 9 -103 12 -47 22 -101 22 -120 0 -42 36
-103 59 -99 14 3 16 18 13 113 -3 101 -5 112 -35 164 -36 61 -48 69 -68 45z"/>
<path d="M2764 2293 c-53 -94 -84 -139 -114 -168 -18 -17 -37 -50 -46 -81 -14
-50 -14 -52 16 -125 18 -44 33 -101 37 -141 3 -38 9 -68 13 -68 5 0 21 22 37
50 16 28 54 70 88 98 77 61 102 100 111 168 6 53 -13 158 -37 204 -5 8 -17 36
-28 63 -11 26 -26 47 -35 47 -8 0 -27 -21 -42 -47z"/>
<path d="M1793 2296 c-109 -40 -184 -99 -265 -206 -53 -71 -43 -124 13 -64 54
58 246 170 344 200 33 10 73 27 88 39 l28 20 -21 17 c-31 25 -111 22 -187 -6z"/>
<path d="M2070 2280 c-51 -15 -300 -142 -391 -199 -121 -78 -159 -121 -106
-121 22 0 116 43 207 95 25 14 90 40 145 57 55 17 105 34 110 38 6 4 30 11 54
15 40 7 81 34 81 54 0 15 -39 58 -57 63 -10 3 -29 1 -43 -2z"/>
<path d="M4000 2231 c-41 -9 -81 -20 -87 -24 -7 -5 -36 -14 -65 -22 -74 -19
-244 -111 -266 -143 -35 -50 -76 -131 -71 -137 4 -3 33 8 65 26 33 17 93 49
134 72 176 94 380 222 380 239 0 10 2 10 -90 -11z"/>
<path d="M3485 2193 c-16 -9 -46 -28 -65 -43 -19 -15 -62 -37 -95 -50 -95 -36
-109 -45 -133 -91 -41 -77 -21 -190 47 -279 19 -24 20 -24 27 -5 46 126 95
222 166 331 104 158 101 154 91 154 -4 -1 -21 -8 -38 -17z"/>
<path d="M4140 2173 c-50 -18 -264 -121 -310 -149 -31 -18 -77 -39 -103 -46
-26 -6 -47 -16 -47 -21 0 -5 10 -6 23 -3 12 3 56 11 97 16 41 6 91 15 110 22
19 6 64 12 100 13 103 3 280 23 340 39 30 7 74 17 98 21 24 4 42 12 42 20 0
26 -42 64 -88 78 -46 15 -230 22 -262 10z"/>
<path d="M2066 2132 c-10 -17 36 -72 60 -72 30 0 30 12 2 50 -21 29 -51 39
-62 22z"/>
<path d="M1955 2046 c-57 -15 -86 -28 -132 -63 -35 -26 -46 -61 -15 -48 9 5
53 21 97 37 118 42 156 60 152 72 -5 16 -44 16 -102 2z"/>
<path d="M2145 2035 c-27 -7 -84 -27 -125 -45 -41 -17 -106 -43 -145 -57 -69
-25 -131 -61 -121 -70 2 -3 37 1 78 8 40 7 105 14 143 14 113 2 198 14 266 36
35 11 83 23 107 26 23 3 42 9 42 12 0 10 -62 67 -87 80 -28 14 -95 13 -158 -4z"/>
<path d="M1176 2030 c-56 -18 -149 -91 -134 -106 2 -1 28 6 58 16 71 24 218
43 286 38 64 -5 73 12 22 39 -38 19 -186 28 -232 13z"/>
<path d="M2458 2009 c-28 -16 -22 -26 28 -49 78 -34 93 -25 48 29 -27 32 -47
37 -76 20z"/>
<path d="M1234 1945 c-126 -20 -121 -16 -298 -237 -62 -78 -45 -76 136 11 79
38 177 85 218 105 176 85 200 105 144 126 -32 13 -97 11 -200 -5z"/>
<path d="M1550 1933 c-33 -13 -108 -71 -186 -143 -46 -42 -111 -91 -145 -110
-34 -18 -78 -47 -98 -65 -20 -17 -57 -46 -83 -63 -56 -38 -65 -51 -47 -63 25
-16 58 -9 121 24 35 17 95 45 133 62 96 41 362 173 407 203 40 26 95 120 85
146 -5 13 -23 16 -89 15 -46 0 -90 -3 -98 -6z"/>
<path d="M2385 1882 c-63 -40 -262 -131 -330 -152 -50 -15 -155 -72 -155 -83
0 -11 54 -4 136 17 103 26 284 50 379 50 75 0 99 -5 146 -27 31 -14 60 -23 63
-20 3 4 6 43 6 87 0 70 -3 86 -24 117 -43 63 -132 67 -221 11z"/>
<path d="M1720 1750 c-99 -102 -134 -163 -150 -267 -15 -95 -26 -137 -61 -226
-17 -43 -28 -81 -24 -85 4 -4 44 31 88 78 105 109 172 240 253 490 42 131 16
134 -106 10z"/>
<path d="M3464 1802 c-32 -21 -84 -62 -114 -91 -52 -49 -53 -52 -25 -46 17 4
68 11 115 16 128 14 212 30 245 46 17 8 50 18 75 24 66 14 160 50 160 61 0 6
-8 7 -17 3 -64 -27 -94 -29 -190 -11 -54 10 -108 22 -121 27 -41 16 -68 10
-128 -29z"/>
<path d="M3136 1788 c-3 -18 -8 -78 -11 -133 -4 -55 -11 -119 -17 -143 -9 -36
-8 -46 5 -59 37 -37 55 24 58 197 3 122 -3 170 -21 170 -5 0 -11 -15 -14 -32z"/>
<path d="M2693 1678 c-13 -6 -23 -14 -23 -18 0 -3 53 -55 118 -115 64 -60 139
-135 166 -167 27 -32 54 -58 59 -58 6 0 7 17 3 42 -5 33 -19 54 -62 98 -30 30
-92 94 -136 143 -45 48 -86 87 -92 86 -6 0 -21 -5 -33 -11z"/>
<path d="M2235 1660 c-9 -14 -9 -41 0 -233 7 -163 8 -168 28 -165 21 3 21 7
18 183 -1 99 -5 190 -8 203 -5 23 -27 30 -38 12z"/>
<path d="M3237 1608 c-8 -18 -34 -77 -57 -131 -31 -72 -39 -102 -31 -110 17
-17 45 16 76 91 15 37 34 81 42 99 16 35 14 74 -4 80 -7 3 -19 -11 -26 -29z"/>
<path d="M3054 1383 c-5 -32 -8 -83 -7 -113 11 -459 11 -565 1 -705 -6 -88
-12 -191 -12 -230 l-1 -70 30 0 30 0 10 110 c5 61 9 310 10 555 0 355 -3 452
-14 478 -21 50 -38 40 -47 -25z"/>
<path d="M2270 1229 c-25 -4 -60 -11 -77 -14 -18 -3 -33 -10 -33 -16 0 -15 44
-29 175 -55 66 -14 142 -31 169 -39 27 -8 75 -15 105 -15 31 -1 98 -7 149 -14
143 -20 136 7 -20 85 -75 37 -115 51 -171 58 -117 15 -249 20 -297 10z"/>
<path d="M2252 1127 c-6 -7 -8 -31 -5 -55 5 -37 9 -43 27 -40 24 3 31 26 21
74 -6 35 -24 44 -43 21z"/>
<path d="M2940 1062 c-19 -9 -33 -21 -31 -27 1 -5 8 -8 15 -6 6 2 30 11 54 19
23 8 42 18 42 23 0 15 -43 10 -80 -9z"/>
<path d="M2670 1037 c-25 -4 -95 -5 -156 -2 -97 6 -122 4 -190 -15 -151 -42
-302 -126 -377 -209 -57 -63 -44 -81 30 -41 21 11 47 20 59 20 12 0 68 14 125
31 57 17 140 41 184 53 44 13 109 35 145 50 88 37 201 71 285 87 64 11 104 27
80 30 -38 6 -148 3 -185 -4z"/>
<path d="M2774 960 c-85 -42 -182 -120 -225 -179 -15 -20 -44 -67 -64 -106
-21 -38 -52 -95 -70 -125 -45 -75 -52 -100 -28 -100 20 0 55 21 88 52 11 10
43 36 71 58 28 22 69 61 90 87 21 26 76 89 121 140 87 97 106 127 118 181 9
43 -3 42 -101 -8z"/>
<path d="M2277 823 c-4 -3 -7 -74 -7 -158 0 -113 3 -156 14 -170 11 -16 17
-17 29 -7 12 10 15 40 16 145 1 158 -5 197 -28 197 -10 0 -21 -3 -24 -7z"/>
</g>
</svg>
