<?xml version="1.0" standalone="no"?>
<!DOCTYPE svg PUBLIC "-//W3C//DTD SVG 20010904//EN"
 "http://www.w3.org/TR/2001/REC-SVG-20010904/DTD/svg10.dtd">
<svg version="1.0" xmlns="http://www.w3.org/2000/svg"
 width="560.000000pt" height="480.000000pt" viewBox="0 0 560.000000 480.000000"
 preserveAspectRatio="xMidYMid meet">
<metadata>
Created by potrace 1.11, written by Peter Selinger 2001-2013
</metadata>
<g transform="translate(0.000000,480.000000) scale(0.100000,-0.100000)"
fill="#000000" stroke="none">
<path d="M120 2530 l0 -1870 1370 0 1370 0 0 1870 0 1870 -1370 0 -1370 0 0
-1870z m587 1760 c8 -22 20 -32 41 -36 21 -4 31 -13 35 -30 5 -26 -7 -42 -18
-24 -8 13 -62 13 -70 1 -3 -5 -1 -12 3 -15 5 -3 9 -19 10 -36 1 -30 0 -30 -40
-24 -36 6 -40 5 -36 -12 3 -15 12 -19 41 -18 35 1 37 0 22 -16 -31 -34 -8 -43
26 -9 14 14 24 18 31 11 7 -8 6 -16 -6 -27 -9 -9 -16 -21 -16 -26 0 -14 36
-11 49 5 11 14 40 9 91 -13 15 -7 98 -164 99 -188 1 -9 -7 -8 -26 3 -16 8 -53
23 -83 34 -72 26 -82 33 -74 53 8 21 24 22 50 2 22 -16 54 -20 54 -5 0 5 -9
14 -21 21 l-21 11 22 15 c32 23 9 41 -24 19 -26 -16 -26 -16 -26 10 0 33 -25
27 -26 -7 0 -25 -31 -69 -49 -69 -34 0 -92 26 -125 56 -34 31 -38 39 -33 69 6
36 -11 70 -29 59 -5 -3 -8 -20 -6 -37 2 -24 -1 -31 -12 -29 -8 2 -17 8 -19 14
-5 16 -40 48 -51 48 -15 0 -12 -21 7 -42 20 -23 1 -24 -37 -3 -31 18 -63 19
-58 3 3 -7 14 -18 26 -24 25 -13 19 -24 -14 -24 -20 0 -44 -25 -44 -44 0 -15
46 -4 68 17 l24 22 -7 -27 c-4 -17 -3 -28 3 -28 18 0 34 29 27 50 -4 11 -2 20
4 20 6 0 11 -12 11 -26 0 -31 23 -28 28 4 2 12 8 22 13 22 12 0 11 -12 -1 -46
-12 -31 -9 -37 14 -28 9 3 16 15 16 25 0 25 22 24 46 -2 16 -17 16 -22 4 -29
-8 -6 -19 -10 -24 -10 -4 0 -34 -16 -66 -35 -69 -42 -92 -43 -134 -9 -28 25
-31 25 -35 8 -2 -10 6 -26 18 -35 14 -11 18 -20 10 -24 -6 -4 -21 2 -33 14
-22 20 -66 29 -66 13 0 -15 24 -32 44 -32 14 0 17 -3 9 -11 -15 -15 -108 -7
-107 9 1 6 2 120 3 252 l1 240 238 0 238 0 11 -30z m61 13 c5 -18 -10 -16 -34
2 -18 15 -18 15 5 13 14 -2 26 -9 29 -15z m176 0 c-4 -10 -9 -36 -10 -58 -1
-22 -2 -48 -3 -57 -1 -25 -21 -23 -21 2 0 11 -4 20 -10 20 -13 0 -13 -46 0
-71 7 -12 7 -31 2 -51 l-9 -33 -12 30 c-7 17 -20 39 -30 50 -31 34 -32 53 -5
85 14 16 23 34 19 40 -9 14 -45 -11 -45 -32 0 -10 -4 -18 -10 -18 -20 0 -9 31
20 57 38 34 38 46 -1 38 -22 -5 -29 -4 -25 4 4 6 37 11 78 11 63 0 69 -2 62
-17z m299 2 c22 -4 37 -13 37 -21 0 -10 -7 -13 -25 -8 -14 3 -25 2 -25 -4 0
-12 24 -22 56 -22 13 0 24 -4 24 -9 0 -12 -57 -23 -109 -21 -53 2 -53 -22 0
-31 l34 -6 -35 -15 c-19 -9 -38 -20 -42 -24 -14 -14 3 -23 27 -14 33 12 32 1
-2 -26 -18 -15 -24 -26 -19 -39 6 -17 7 -17 27 1 12 11 25 28 29 39 7 18 9 17
20 -10 9 -23 13 -26 20 -15 14 22 12 41 -6 61 -9 10 -13 23 -9 29 4 6 13 2 25
-12 24 -30 38 -16 17 16 -15 22 -15 25 -1 30 27 10 80 7 115 -8 69 -29 138
-131 139 -205 0 -29 -2 -32 -15 -21 -9 8 -15 30 -15 57 0 31 -4 43 -12 40 -7
-2 -13 -16 -13 -30 1 -36 -10 -34 -37 8 -13 19 -29 35 -35 35 -18 0 -16 -35 3
-51 14 -12 10 -15 -32 -24 -61 -13 -69 -41 -13 -39 31 1 36 -2 31 -18 -7 -29
26 -11 44 24 19 36 30 31 13 -6 -17 -36 -2 -47 23 -16 l20 25 19 -24 c31 -38
25 -92 -16 -141 -19 -23 -35 -49 -35 -57 0 -13 -3 -13 -15 -3 -14 12 -13 16
11 42 27 27 27 28 6 28 -12 0 -22 5 -22 10 0 6 9 10 19 10 26 0 51 10 51 21 0
5 -9 9 -20 9 -20 0 -20 1 -4 25 9 14 14 28 10 32 -8 9 -46 -27 -46 -44 0 -20
-18 -16 -25 7 -9 28 -25 25 -25 -5 0 -14 5 -25 10 -25 6 0 10 -7 10 -16 0 -11
-6 -14 -20 -9 -16 5 -20 2 -20 -14 0 -12 6 -21 13 -21 12 0 22 -15 60 -95 8
-16 17 -58 21 -92 5 -59 5 -62 -13 -52 -10 7 -33 34 -51 60 -18 27 -41 56 -51
65 -11 9 -19 29 -19 43 0 14 -4 32 -9 40 -5 8 -3 24 7 42 21 35 7 52 -18 22
-23 -29 -30 -29 -30 2 0 14 -8 29 -20 35 -11 6 -17 16 -14 25 10 26 -14 16
-37 -15 -12 -16 -26 -27 -31 -24 -15 10 -8 51 12 69 11 10 20 22 20 27 0 17
-40 7 -56 -14 -16 -23 -16 -23 -10 9 5 31 -12 63 -35 63 -14 0 -10 -43 6 -64
24 -32 19 -46 -15 -39 -18 3 -30 1 -30 -5 0 -17 40 -40 60 -35 12 3 22 -2 29
-15 10 -18 7 -21 -19 -27 -35 -8 -38 -20 -9 -35 15 -9 24 -8 35 1 13 11 22 5
54 -32 l38 -44 -27 -6 c-14 -3 -35 1 -46 8 -23 15 -55 17 -55 3 0 -5 10 -15
22 -21 21 -11 20 -12 -12 -26 -30 -12 -35 -12 -43 2 -5 9 -22 31 -38 49 -16
18 -26 36 -23 39 3 3 22 3 41 0 28 -5 35 -3 31 8 -2 8 -14 15 -26 17 -20 3
-21 5 -6 28 15 22 15 24 0 24 -9 0 -19 -7 -22 -15 -4 -8 -11 -15 -16 -15 -6 0
-8 7 -5 15 8 19 -13 31 -24 14 -5 -8 -3 -22 6 -36 9 -13 11 -24 5 -28 -11 -7
-40 46 -40 76 0 12 -10 39 -22 60 -29 51 -16 68 39 51 22 -7 41 -8 46 -3 15
15 -2 31 -31 31 -24 1 -25 2 -9 11 11 6 30 9 43 6 25 -4 33 7 13 18 -7 5 -3
16 12 31 20 21 20 24 5 30 -10 4 -29 1 -44 -7 -15 -7 -30 -15 -34 -17 -5 -2
-8 6 -8 17 0 25 -13 27 -30 6 -10 -12 -10 -21 -1 -41 13 -30 14 -34 3 -34 -5
0 -14 10 -19 23 -10 21 -11 21 -19 3 -4 -10 -2 -27 4 -37 6 -10 8 -21 3 -24
-13 -7 -31 51 -31 101 0 47 8 55 59 63 43 7 37 26 -7 25 -20 -1 -31 3 -29 10
2 6 22 10 45 9 32 -1 40 1 35 13 -3 8 -9 14 -14 14 -5 0 -9 5 -9 10 0 6 15 10
34 10 38 0 57 17 35 31 -22 14 -51 11 -71 -8 -24 -21 -29 -15 -21 31 l6 38
111 -5 c61 -3 128 -9 149 -12z m238 1 c-14 -16 -4 -46 15 -46 16 0 16 -2 8
-25 -6 -14 -9 -13 -30 6 -22 21 -24 21 -24 4 0 -10 12 -31 27 -47 14 -15 23
-31 19 -35 -4 -4 -12 0 -18 10 -5 10 -39 32 -74 47 -47 22 -64 34 -64 49 0 45
9 51 82 51 59 0 69 -2 59 -14z m453 -1 c11 -8 28 -15 38 -15 10 0 38 -16 64
-35 25 -19 56 -38 70 -41 13 -3 24 -9 24 -13 0 -12 -42 -29 -84 -35 -21 -3
-41 -8 -44 -11 -12 -12 24 -26 55 -21 24 3 31 1 26 -9 -2 -8 -13 -17 -24 -20
-10 -4 -24 -15 -29 -26 -9 -16 -7 -19 8 -19 10 0 24 6 31 13 11 10 12 7 7 -16
-4 -18 -1 -35 8 -48 14 -21 14 -21 25 -2 5 11 7 31 4 44 -5 20 -3 22 8 12 7
-7 17 -13 21 -13 16 0 7 27 -17 50 -29 27 -25 42 5 15 19 -18 20 -17 20 1 0
11 -5 25 -12 32 -19 19 -2 25 35 13 35 -12 66 -40 86 -79 10 -18 9 -28 -3 -50
-9 -15 -25 -47 -36 -72 -49 -107 -53 -113 -88 -115 -42 -3 -37 15 8 30 19 6
36 17 38 24 3 10 -2 11 -19 6 -21 -7 -22 -6 -11 8 19 23 33 77 20 77 -20 0
-48 -33 -48 -57 0 -29 -18 -30 -22 -1 -5 38 -28 33 -28 -5 0 -20 5 -37 12 -39
8 -3 8 -9 0 -24 -11 -18 -12 -18 -18 4 -5 18 -9 20 -21 11 -10 -9 -23 -9 -52
1 -21 7 -44 9 -51 5 -8 -5 -11 -3 -8 6 2 8 18 15 34 17 49 5 58 10 45 26 -9
11 -7 17 10 29 22 16 19 37 -6 37 -7 0 -27 -11 -43 -25 -37 -31 -40 -31 -44
-2 -2 12 -10 22 -18 22 -21 0 -25 -33 -6 -54 9 -10 14 -25 10 -35 -9 -23 -24
-20 -24 5 0 12 -5 19 -12 17 -20 -7 -21 -35 -1 -55 15 -15 17 -26 9 -71 -13
-74 -32 -63 -51 31 -3 15 -9 27 -15 27 -15 0 -22 -40 -10 -55 20 -25 -30 -19
-56 6 -23 22 -44 19 -44 -6 0 -8 8 -18 18 -24 15 -9 13 -11 -16 -22 -28 -9
-52 -34 -52 -53 0 -18 44 -2 67 24 31 35 38 34 24 -4 -6 -14 -8 -26 -4 -26 14
0 43 34 43 52 0 10 7 18 17 18 13 0 14 -3 5 -12 -17 -17 -15 -48 2 -48 8 0 18
9 21 20 6 20 7 20 36 -1 16 -11 37 -32 46 -46 16 -24 16 -26 -2 -39 -27 -20
-29 -18 -44 21 -7 19 -16 35 -20 35 -17 0 -20 -45 -5 -68 12 -19 13 -26 3 -38
-11 -13 -14 -10 -23 18 -6 18 -15 33 -21 33 -17 0 -17 -61 -1 -75 9 -7 16 -21
16 -31 0 -27 -41 -67 -75 -74 -30 -6 -30 -6 13 32 50 45 53 58 12 50 -35 -7
-35 -8 -15 40 18 42 7 65 -20 43 -12 -10 -16 -26 -13 -52 4 -38 -5 -51 -16
-23 -3 8 -13 15 -21 15 -20 0 -11 -39 13 -57 14 -12 14 -14 -4 -27 -10 -8 -38
-19 -61 -25 -23 -6 -45 -15 -48 -21 -12 -20 -25 -10 -25 20 0 16 -9 51 -19 79
-11 27 -17 52 -14 55 4 3 21 6 38 6 41 0 66 25 36 35 -24 7 -25 14 -9 50 6 14
9 28 5 31 -10 10 -56 -27 -60 -49 -3 -20 -4 -20 -15 6 -20 48 -14 81 22 128
19 24 38 55 41 69 4 14 13 32 22 42 13 15 17 15 51 -9 33 -22 37 -23 41 -7 2
10 -5 24 -15 31 -31 23 -7 25 35 3 30 -15 41 -17 41 -7 0 7 -5 18 -12 25 -7 7
-8 12 -2 12 6 0 21 -11 34 -25 28 -30 40 -32 40 -6 0 24 -36 51 -69 51 l-24 0
22 24 c19 21 20 24 6 30 -23 8 -55 -11 -55 -34 0 -11 -9 -24 -19 -30 -29 -15
-32 -13 -21 16 14 35 13 36 -12 32 -17 -2 -24 -11 -26 -33 -4 -31 -18 -55 -33
-55 -29 0 17 99 60 129 35 25 59 26 89 5 30 -21 50 -14 27 9 -9 10 -15 20 -13
23 10 10 35 -8 52 -36 19 -32 36 -39 36 -15 0 13 4 14 21 5 11 -7 23 -9 26 -6
10 10 -7 37 -29 46 l-23 9 23 7 c29 9 28 22 -3 30 -17 4 -32 1 -44 -10 -10 -9
-30 -16 -46 -16 -27 0 -27 1 -12 18 32 35 19 54 -18 29 -11 -8 -34 -17 -52
-20 -47 -9 -33 18 18 35 43 14 49 35 9 30 -32 -4 -18 10 23 24 38 13 45 30 16
39 -18 6 -28 1 -49 -25 l-27 -33 -6 32 c-12 56 -29 36 -23 -26 5 -47 4 -53 -5
-33 -10 23 -11 24 -21 7 -5 -10 -7 -34 -4 -52 5 -25 1 -46 -15 -77 -22 -42
-23 -42 -29 -18 -4 14 -17 49 -29 77 -23 58 -21 74 15 98 31 20 31 39 -1 33
-34 -7 -31 3 7 25 33 19 30 32 -12 40 -14 2 63 5 170 5 157 1 199 -1 214 -13z
m170 1 c-7 -18 40 -30 66 -16 15 8 21 6 30 -10 23 -43 19 -119 -4 -81 -3 4
-34 18 -68 31 -71 25 -98 45 -98 72 0 14 8 18 40 18 29 0 38 -4 34 -14z m165
-7 c10 -18 11 -26 0 -45 -15 -29 -29 -31 -29 -5 0 10 -9 30 -21 45 l-20 26 28
0 c18 0 33 -8 42 -21z m437 6 c-3 -8 -9 -22 -12 -30 -7 -17 9 -19 37 -5 18 10
19 7 19 -45 0 -30 -4 -55 -10 -55 -5 0 -10 9 -10 20 0 28 -29 25 -40 -5 -14
-37 -23 -31 -16 10 4 21 3 35 -3 35 -18 0 -29 -33 -20 -57 10 -27 2 -30 -17
-5 -12 15 -13 16 -14 0 0 -27 11 -48 27 -48 11 0 13 -12 7 -62 -9 -82 -17 -99
-34 -68 -11 20 -10 25 4 35 9 7 16 15 16 17 0 11 -38 15 -53 6 -11 -5 -24 -4
-37 4 -27 17 -25 21 10 36 17 8 28 18 24 23 -9 16 -53 10 -63 -9 -7 -14 -18
-18 -40 -14 -36 5 -37 9 -12 40 15 17 30 22 66 22 41 0 46 2 35 15 -7 8 -23
15 -37 15 -15 0 -22 4 -18 11 4 6 22 8 46 4 38 -7 53 5 28 21 -6 3 3 15 23 28
l33 21 -35 3 c-23 2 -38 -2 -46 -12 -17 -24 -27 -19 -22 9 3 16 1 25 -7 25
-22 0 -37 -28 -33 -61 2 -19 -2 -34 -9 -36 -8 -3 -13 5 -13 22 0 17 -5 25 -12
23 -17 -6 -22 -56 -8 -73 8 -10 2 -20 -29 -46 -22 -19 -58 -44 -80 -56 l-40
-23 10 33 c6 17 12 38 15 44 2 10 9 10 29 1 31 -14 40 -6 26 21 -7 12 -17 18
-26 15 -28 -11 -15 4 21 26 26 15 34 24 26 32 -15 15 -50 0 -66 -30 l-14 -27
-11 28 c-6 16 -15 25 -21 22 -14 -9 -12 -38 4 -60 7 -10 11 -27 8 -37 -4 -15
-9 -12 -33 18 -16 20 -29 41 -29 47 0 5 12 30 28 54 27 44 27 44 73 38 58 -8
69 6 26 34 l-32 21 184 0 c159 0 182 -2 177 -15z m-1855 -210 c28 -44 25 -56
-11 -44 -23 8 -32 20 -40 50 -6 21 -14 41 -19 44 -12 7 -22 -22 -14 -42 6 -16
5 -16 -10 -4 -9 7 -17 24 -17 37 0 17 6 23 28 26 28 4 46 -11 83 -67z m1865
29 c-30 -21 -44 -16 -17 7 13 11 27 17 30 13 3 -3 -3 -12 -13 -20z m-1007 -7
c-27 -21 -80 -45 -77 -35 5 14 70 49 77 42 2 -2 2 -5 0 -7z m1041 -51 c0 -49
-3 -57 -32 -80 -18 -13 -35 -23 -40 -20 -20 12 38 154 62 154 6 0 10 -24 10
-54z m-276 -33 l-6 -38 26 28 c14 15 30 27 36 27 20 0 6 -35 -18 -45 -22 -10
-23 -18 -7 -58 5 -13 3 -16 -8 -11 -20 7 -34 -16 -16 -27 8 -5 24 -9 37 -9 12
0 22 -4 22 -10 0 -5 -13 -10 -30 -10 -16 0 -30 -4 -30 -9 0 -11 25 -21 51 -21
30 0 23 -41 -18 -104 -21 -31 -40 -56 -44 -56 -4 0 -5 32 -2 70 4 61 3 69 -11
64 -9 -3 -19 -17 -22 -30 -8 -31 -17 -30 -55 7 -22 21 -35 27 -42 20 -7 -7 -6
-16 6 -29 22 -24 21 -32 -3 -32 -22 0 -46 -35 -30 -45 5 -3 18 -1 29 4 14 8
21 8 24 -2 4 -8 12 -4 26 13 21 26 29 13 11 -20 -13 -25 8 -39 25 -17 7 10 15
17 19 17 15 0 3 -44 -30 -107 -30 -55 -38 -85 -45 -153 -6 -54 -15 -94 -27
-108 -24 -32 -111 -61 -209 -68 l-81 -7 -7 56 c-8 65 8 110 42 115 20 3 22 -1
20 -35 -2 -46 26 -56 31 -10 5 38 22 23 22 -19 0 -36 8 -42 28 -22 18 18 15
43 -8 63 -24 21 -26 37 -5 29 19 -8 20 10 1 25 -10 8 -30 10 -61 5 l-46 -6 33
53 c28 46 34 67 39 137 6 74 11 88 47 145 23 34 48 82 57 107 9 25 28 58 43
73 39 42 122 87 159 87 31 0 32 -1 27 -37z m106 -53 c0 -11 -4 -20 -8 -20 -5
0 -14 -10 -20 -22 -10 -22 -11 -22 -11 8 -1 29 14 54 31 54 4 0 8 -9 8 -20z
m60 -56 c0 -18 -5 -24 -23 -24 -13 0 -28 -5 -35 -12 -25 -25 -22 3 4 35 30 38
54 39 54 1z m110 -119 l0 -115 -32 0 c-30 0 -31 0 -13 20 16 18 16 20 1 26
-17 7 -66 -20 -66 -36 0 -6 -12 -9 -27 -9 -17 1 -21 3 -10 6 21 6 22 22 1 30
-8 3 -25 -4 -39 -17 -14 -13 -27 -21 -30 -18 -7 6 52 65 86 85 18 11 34 33 44
62 18 53 41 81 67 81 16 0 18 -10 18 -115z m-1968 66 c35 -19 74 -37 88 -41
l25 -7 -32 -16 c-45 -24 -76 -21 -103 8 -24 25 -50 33 -50 16 0 -6 10 -17 22
-25 34 -24 13 -31 -32 -11 -22 10 -43 15 -47 12 -10 -10 18 -37 38 -37 11 0
19 -4 19 -10 0 -5 -8 -10 -18 -10 -17 0 -42 -36 -42 -60 0 -24 33 -7 53 28
l22 37 3 -32 c2 -18 7 -33 11 -33 18 0 33 31 27 56 -5 17 -3 23 4 19 5 -3 10
-15 10 -26 0 -12 5 -19 13 -16 6 2 12 13 11 25 0 12 7 23 18 25 23 6 27 -1 21
-36 -4 -20 -17 -34 -44 -47 -21 -11 -40 -24 -43 -29 -12 -18 15 -23 39 -7 36
24 38 20 9 -24 -32 -48 -28 -59 11 -28 27 21 28 21 20 3 -16 -38 -12 -70 10
-70 17 0 20 6 18 43 -2 38 0 41 17 32 25 -13 30 -13 30 5 0 8 -13 21 -30 30
-16 9 -30 20 -30 25 0 15 16 12 30 -5 7 -8 16 -15 21 -15 13 0 -3 34 -23 48
-22 16 -23 34 -3 72 31 61 75 48 159 -46 55 -61 86 -115 86 -150 0 -28 -25 -8
-35 29 -5 19 -14 35 -20 35 -5 0 -9 -5 -7 -10 3 -10 -29 -42 -58 -58 -12 -7
-12 -11 -3 -21 9 -9 18 -9 41 0 24 10 34 10 51 0 31 -20 39 -52 45 -194 7
-159 25 -246 65 -317 47 -82 39 -128 -21 -128 -36 0 -37 25 -3 52 25 20 33 38
16 38 -5 0 -17 -8 -27 -17 -17 -17 -17 -15 -11 30 5 37 4 48 -6 45 -6 -3 -13
-14 -15 -26 -4 -26 -10 -27 -40 -6 l-23 15 27 32 c26 31 18 51 -11 27 -24 -20
-19 13 5 35 19 17 28 55 13 55 -3 0 -14 -7 -23 -15 -15 -14 -18 -12 -35 25
-10 22 -22 40 -26 40 -11 0 -23 -44 -13 -47 5 -2 16 -8 24 -13 22 -14 5 -23
-20 -10 -19 10 -21 9 -18 -7 2 -10 16 -24 31 -31 15 -7 27 -20 27 -29 0 -15
-2 -15 -18 0 -10 10 -23 17 -29 17 -18 0 8 -58 29 -63 14 -4 18 -15 18 -46 l0
-41 -37 20 c-21 11 -45 20 -55 20 -21 0 -60 48 -56 69 5 26 22 18 38 -17 16
-34 30 -34 30 0 0 11 5 16 11 12 7 -4 9 2 7 17 -1 13 -10 25 -18 25 -8 1 -19
2 -25 3 -5 0 -4 6 3 13 16 16 15 28 -3 28 -9 0 -20 -12 -26 -27 -9 -24 -12
-26 -20 -11 -11 20 6 72 22 63 15 -10 61 4 54 15 -3 6 -18 10 -32 10 -21 0
-23 2 -13 15 9 11 17 12 30 5 25 -13 30 -13 30 5 0 9 -7 18 -16 22 -12 4 -9 9
15 19 20 9 31 20 31 34 0 27 -14 25 -45 -7 -24 -27 -25 -27 -25 -5 0 26 -12
29 -30 7 -9 -11 -9 -19 -2 -28 7 -8 6 -19 -3 -37 -11 -20 -14 -21 -15 -7 0 10
-5 15 -11 12 -6 -4 -7 -19 -4 -36 8 -33 -9 -40 -25 -10 -14 27 -12 67 5 124
12 42 12 47 -1 47 -9 0 -18 -9 -21 -20 -9 -33 -22 -23 -25 20 -3 42 -21 56
-26 20 -4 -24 -6 -24 -32 -8 -14 9 -25 10 -36 3 -25 -16 -18 -29 18 -35 31 -5
32 -6 13 -17 -17 -11 -18 -14 -5 -23 8 -5 20 -8 25 -6 6 2 18 7 28 11 9 4 17
3 17 -3 0 -6 -9 -14 -20 -17 -11 -3 -20 -10 -20 -15 0 -16 21 -22 35 -10 13
10 15 8 15 -17 0 -16 11 -56 24 -89 52 -128 42 -157 -29 -84 -23 23 -58 46
-86 55 -63 21 -76 37 -55 70 20 30 21 66 2 59 -7 -3 -18 -15 -24 -27 -13 -28
-15 -6 -3 46 7 29 6 37 -5 37 -18 0 -32 -28 -27 -54 4 -20 3 -20 -9 -2 -21 32
-56 66 -68 66 -20 0 -9 -33 22 -62 30 -28 30 -29 10 -35 -12 -3 -22 -9 -22
-13 0 -13 23 -18 47 -9 38 14 37 -10 -1 -28 -31 -14 -41 -15 -78 -4 -54 16
-68 28 -68 55 0 25 -16 53 -25 44 -4 -4 -8 -18 -9 -32 0 -14 -2 -26 -3 -26
-17 0 -53 24 -58 39 -7 23 -34 36 -48 22 -7 -7 -6 -15 3 -26 11 -13 9 -15 -11
-15 -13 -1 -35 -7 -49 -15 -51 -29 -50 -32 -50 225 0 159 4 240 10 240 6 0 20
16 31 35 26 43 41 45 33 5 -4 -17 -2 -30 4 -30 18 0 36 32 34 60 -1 16 2 31 8
35 6 4 10 -6 10 -24 0 -17 4 -31 9 -31 11 0 25 28 25 52 1 26 21 17 21 -9 -1
-29 10 -29 29 -1 10 14 12 26 6 33 -7 9 2 17 31 28 44 17 42 21 24 -40 -3 -10
-21 -28 -40 -41 -20 -12 -33 -27 -29 -33 4 -6 15 -4 31 6 39 26 37 11 -4 -29
-32 -30 -34 -36 -17 -36 11 0 26 6 34 13 8 7 7 2 -3 -15 -17 -27 -23 -58 -11
-58 21 0 44 24 44 47 0 21 2 23 15 13 12 -10 16 -9 22 5 4 12 -1 24 -15 36
-28 22 -30 44 -3 29 26 -13 31 -13 31 4 0 7 -9 20 -20 27 -16 11 -19 21 -15
44 8 35 40 83 50 73 4 -4 -2 -19 -14 -34 -23 -29 -27 -44 -12 -44 16 0 41 30
48 58 9 38 20 43 85 39 40 -2 75 -13 120 -36z m1208 -10 c0 -6 -5 -13 -11 -17
-6 -3 -8 -17 -4 -31 5 -21 3 -24 -11 -19 -22 9 -51 -14 -32 -25 7 -5 23 -9 36
-9 12 0 22 -2 22 -4 0 -2 3 -11 6 -20 5 -12 0 -16 -20 -16 -14 0 -26 -4 -26
-10 0 -16 39 -31 65 -24 58 14 84 -56 47 -126 -25 -46 -36 -47 -51 -3 -8 21
-16 44 -18 51 -3 6 2 12 11 12 26 0 18 17 -13 28 -37 13 -91 86 -91 121 0 47
11 68 43 84 38 19 47 20 47 8z m640 -6 c0 -20 -47 -68 -59 -61 -15 10 0 53 22
64 31 15 37 14 37 -3z m-1364 -56 c-31 -9 -41 6 -27 37 l12 27 18 -29 c17 -28
17 -29 -3 -35z m804 11 c6 0 10 -7 10 -15 0 -8 -6 -15 -14 -15 -8 0 -24 -12
-35 -27 -20 -27 -20 -27 -21 -6 0 13 9 28 20 35 28 18 25 31 -5 26 -28 -6 -29
-4 -15 22 10 19 11 19 30 0 11 -11 25 -20 30 -20z m47 -26 c-9 -18 -16 -23
-22 -15 -4 7 1 21 11 32 23 26 29 17 11 -17z m-1874 -20 c-7 -18 -33 -18 -33
-1 0 19 10 27 25 20 8 -2 11 -11 8 -19z m1066 -10 c2 -2 2 -7 -2 -10 -8 -9
-47 6 -47 17 0 9 37 3 49 -7z m781 -46 c0 -20 -1 -21 -24 -12 -19 7 -21 25 -4
42 14 14 28 -1 28 -30z m-766 -32 c30 -13 76 -59 76 -76 0 -5 -9 -6 -21 -3
-13 4 -27 -2 -40 -16 -24 -26 -39 -27 -39 -3 0 10 -6 27 -14 38 -14 18 -15 18
-22 -10 -4 -17 -2 -36 4 -47 9 -14 8 -25 -6 -48 -20 -37 -24 -38 -37 -10 -6
12 -14 21 -20 20 -14 -3 -8 -42 10 -61 18 -20 20 -57 3 -62 -6 -2 -12 -21 -12
-43 -1 -21 -7 -40 -13 -42 -14 -5 -20 28 -28 147 -3 52 -8 106 -11 120 -3 18
4 35 26 60 29 33 30 34 24 9 -3 -17 0 -30 11 -39 20 -17 27 -9 31 37 2 21 3
39 3 41 2 7 46 0 75 -12z m1246 -36 c15 -16 35 -30 44 -30 20 0 20 10 0 38
-23 33 -1 27 47 -14 46 -38 63 -32 34 12 -9 15 -13 25 -8 22 61 -29 63 -31 63
-72 -1 -37 -2 -39 -14 -23 -10 13 -21 16 -40 11 -30 -7 -25 -21 11 -35 27 -10
22 -29 -8 -29 -11 0 -19 -7 -19 -16 0 -13 7 -15 35 -11 31 5 35 3 35 -16 0
-30 -55 -124 -80 -137 -29 -15 -120 -25 -120 -13 0 24 36 42 72 37 23 -4 38
-2 43 6 10 16 -12 30 -47 30 -20 0 -26 4 -22 15 4 8 13 15 22 15 20 0 52 29
52 47 0 11 -6 11 -36 -2 -20 -8 -38 -15 -39 -15 -1 0 -5 12 -8 28 -10 43 -24
59 -39 44 -10 -10 -9 -19 6 -47 23 -42 18 -50 -18 -34 -14 7 -29 9 -34 5 -9
-9 35 -46 54 -46 8 0 14 -5 14 -11 0 -6 -7 -8 -16 -5 -44 17 -67 19 -62 5 2
-8 14 -18 26 -24 12 -5 22 -13 22 -16 0 -11 -90 -39 -122 -39 -24 0 -27 3 -20
18 5 9 12 54 14 98 4 75 8 87 48 150 60 97 67 100 110 54z m-589 -67 c17 -40
20 -58 13 -108 -4 -33 -6 -92 -5 -130 1 -47 -3 -77 -13 -90 -13 -18 -14 -18
-20 1 -3 11 -22 28 -41 38 -45 24 -44 36 2 36 35 0 36 0 18 20 -20 22 -50 26
-60 9 -5 -7 -14 -4 -26 7 -28 25 -24 41 10 36 16 -2 32 1 35 7 10 16 -33 34
-70 28 -50 -8 -61 13 -24 48 17 16 30 35 30 42 0 17 10 16 34 -2 46 -34 61 -9
20 32 -30 30 -26 67 4 39 20 -18 62 -22 62 -6 0 6 -4 10 -8 10 -5 0 -17 7 -28
15 -18 14 -17 14 14 15 30 0 35 -5 53 -47z m-561 -2 c0 -5 20 -21 45 -35 54
-32 64 -67 45 -168 -8 -39 -14 -85 -14 -104 -1 -25 -5 -34 -18 -34 -27 0 -31
17 -12 50 18 30 15 48 -6 35 -6 -4 -16 -18 -21 -33 l-10 -25 -27 26 c-16 15
-31 27 -35 27 -11 0 -8 -35 4 -47 7 -7 2 -17 -20 -32 -17 -13 -31 -29 -31 -37
0 -23 33 -16 57 14 l23 27 -10 -27 c-8 -23 -7 -28 5 -28 9 0 20 11 26 24 l11
24 34 -20 c38 -22 53 -60 33 -84 -10 -12 -10 -17 -1 -23 7 -4 11 -20 10 -35
-3 -40 -42 -32 -46 9 -2 17 -9 36 -15 43 -16 20 -31 -12 -17 -37 19 -36 10
-41 -28 -16 -22 14 -46 23 -54 20 -27 -11 -30 14 -4 27 33 14 33 24 0 32 -20
5 -33 1 -52 -16 -27 -25 -27 -28 -6 41 6 21 5 22 -15 12 -14 -8 -21 -21 -21
-39 0 -16 -6 -37 -14 -48 -14 -18 -15 -18 -26 11 -6 17 -14 59 -17 95 -5 60
-3 67 20 88 l24 23 37 -22 c27 -16 40 -19 48 -11 16 16 -9 42 -40 42 -20 0
-23 3 -14 12 9 9 18 8 39 -2 16 -8 31 -16 36 -18 15 -7 6 21 -10 35 -16 12
-12 13 30 7 48 -6 60 3 32 26 -14 12 -28 11 -70 -6 -19 -7 -19 -7 -2 13 9 11
17 25 17 32 0 25 -36 5 -55 -32 -25 -47 -35 -47 -35 1 0 33 4 40 32 53 45 20
51 44 9 36 -29 -6 -31 -5 -21 13 9 17 17 19 57 13 37 -5 45 -3 41 8 -2 8 -17
15 -31 17 -35 4 -25 22 12 22 16 0 34 7 41 15 14 17 30 20 30 6z m354 -151 c6
-6 5 -15 -3 -24 -13 -16 -6 -76 8 -76 5 0 12 15 18 33 l9 32 18 -27 c16 -25
17 -29 2 -43 -19 -19 -20 -34 -5 -55 7 -10 12 -11 15 -4 3 6 11 19 18 29 12
16 14 15 36 -16 13 -19 30 -38 38 -42 10 -7 4 -18 -25 -50 -21 -23 -56 -70
-77 -104 -21 -35 -42 -63 -47 -63 -12 0 -39 42 -39 61 0 21 18 28 53 22 16 -3
27 -1 27 6 0 6 -7 11 -15 11 -8 0 -15 5 -15 10 0 6 8 10 19 10 10 0 24 7 31
15 10 12 7 15 -15 21 -15 4 -31 2 -38 -5 -18 -18 -25 -13 -19 17 5 27 5 27
-17 8 -17 -15 -20 -26 -15 -52 7 -40 -9 -52 -30 -22 -28 39 -21 76 19 100 20
11 34 26 32 32 -5 14 -47 21 -47 7 0 -6 -4 -11 -10 -11 -15 0 -12 33 5 56 19
25 19 44 0 44 -8 0 -15 -4 -15 -10 0 -5 -4 -10 -10 -10 -5 0 -10 12 -10 26 0
28 -16 64 -29 64 -16 0 -18 -49 -4 -70 14 -20 13 -20 -11 -14 -14 3 -26 3 -26
-2 0 -15 33 -44 50 -44 16 0 36 -28 27 -37 -3 -2 -16 2 -31 8 -14 7 -29 9 -32
6 -9 -9 16 -38 40 -46 11 -5 20 -18 21 -32 1 -13 5 -39 9 -57 7 -32 7 -33 -12
-21 -13 8 -23 29 -27 57 -6 37 -9 42 -22 31 -10 -9 -13 -22 -9 -41 8 -41 -16
-36 -48 10 -21 30 -26 50 -26 96 0 69 20 115 68 157 34 30 38 31 96 25 33 -3
64 -10 70 -16z m976 -205 c0 -77 -4 -125 -10 -125 -5 0 -10 7 -10 16 0 9 -9
27 -20 41 -11 14 -20 33 -20 41 0 13 3 13 19 -2 17 -15 19 -15 25 -1 9 25 -12
57 -37 54 -26 -2 -57 10 -57 22 0 5 14 9 30 9 17 0 30 4 30 9 0 9 39 61 46 61
2 0 4 -56 4 -125z m-135 25 l26 -10 -21 -28 c-13 -17 -18 -35 -14 -46 6 -15 9
-15 34 9 20 19 29 23 33 13 2 -8 -10 -28 -29 -46 -19 -18 -34 -28 -34 -23 0
21 -33 -3 -46 -33 l-13 -31 -1 36 c0 22 -7 42 -18 52 -37 34 -45 -22 -9 -61
l22 -25 -26 6 c-24 6 -26 5 -24 -31 1 -30 5 -38 28 -46 37 -14 34 -24 -15 -46
-87 -38 -90 -37 -121 25 -39 80 -35 122 8 75 20 -22 45 -27 45 -8 0 16 -31 48
-47 48 -8 0 -13 12 -13 30 0 28 2 30 40 30 22 0 40 4 40 10 0 17 -42 32 -75
27 -27 -5 -38 0 -65 28 l-33 34 24 5 c50 11 77 13 176 15 56 0 113 -3 128 -9z
m-2289 -35 c-3 -8 -9 -22 -12 -30 -9 -21 10 -19 31 5 10 11 29 20 42 20 l24 0
-27 -23 c-34 -30 -17 -45 19 -17 32 26 53 25 100 -4 36 -22 37 -23 15 -33 -16
-7 -28 -7 -40 0 -12 8 -24 8 -42 -1 -33 -15 -33 -32 0 -32 35 0 21 -18 -31
-40 -44 -19 -62 -36 -51 -48 4 -3 16 -1 26 6 28 17 29 16 23 -23 -3 -19 -3
-42 1 -51 11 -29 36 15 29 51 -5 29 -5 29 10 10 21 -28 30 -14 19 29 -11 39 1
51 13 14 6 -22 7 -21 22 12 21 50 42 70 73 70 45 0 53 -19 19 -50 -16 -16 -29
-38 -29 -50 0 -29 21 -21 40 16 l14 29 6 -29 c7 -40 30 -46 31 -9 1 15 1 31 0
35 0 4 9 13 21 19 19 10 20 9 13 -7 -4 -11 -10 -27 -13 -38 -8 -30 21 -14 37
20 24 50 44 51 94 6 20 -19 27 -35 27 -62 0 -44 -7 -52 -32 -39 -10 5 -23 7
-30 3 -7 -4 -1 -12 16 -21 32 -17 34 -33 4 -33 -21 -1 -21 -2 10 -28 18 -15
32 -35 32 -44 0 -22 -9 -23 -40 -1 -34 23 -50 45 -45 61 2 6 1 12 -3 12 -5 0
-14 -6 -21 -12 -11 -11 -15 -9 -25 6 -25 42 -43 59 -54 52 -9 -5 -9 -13 -2
-27 8 -15 7 -19 -3 -19 -8 0 -17 9 -20 20 -4 15 -14 20 -42 20 -42 0 -44 -20
-4 -31 25 -7 16 -14 -26 -21 -15 -3 -21 -14 -26 -48 -4 -25 -3 -49 2 -54 17
-18 9 -27 -13 -15 -19 10 -24 8 -41 -12 -19 -24 -19 -24 3 -27 12 -2 27 1 33
7 19 19 31 12 14 -7 -18 -19 -23 -42 -9 -42 4 0 19 14 33 32 19 23 31 29 45
24 16 -6 14 -9 -14 -26 -18 -11 -32 -24 -32 -30 0 -17 36 -11 55 10 10 11 26
20 36 20 19 0 89 -76 89 -96 0 -21 -19 -26 -36 -10 -8 9 -22 16 -30 16 -21 0
-17 -37 5 -52 14 -10 17 -18 10 -28 -5 -8 -9 -34 -9 -57 0 -43 0 -43 -37 -43
-21 0 -74 13 -118 28 -71 25 -80 32 -83 55 -4 34 -20 35 -28 2 -9 -34 -24 -21
-21 18 3 42 -24 44 -38 2 -9 -27 -13 -30 -48 -27 -28 2 -43 -2 -53 -15 -11
-15 -13 20 -14 247 0 146 -3 295 -7 332 l-6 68 54 24 c64 29 73 31 65 11z
m1929 -31 c8 -20 15 -49 15 -65 0 -19 5 -29 15 -29 17 0 20 -16 5 -25 -18 -11
-10 -25 15 -25 28 0 30 -3 14 -29 -13 -19 -5 -71 11 -71 5 0 10 15 12 33 l3
32 27 -45 c15 -24 24 -48 20 -51 -18 -17 -191 -67 -228 -66 -38 1 -41 4 -40
29 2 41 -19 38 -22 -4 -2 -20 -10 -42 -18 -49 -20 -17 -28 -5 -13 20 18 28 4
38 -22 15 -15 -14 -19 -26 -15 -48 5 -22 1 -35 -16 -53 -12 -13 -25 -23 -29
-23 -9 0 -29 57 -29 85 0 37 37 75 73 75 18 0 39 4 47 10 12 8 12 10 -3 16 -9
3 -26 4 -37 1 -11 -3 -20 -3 -20 0 0 12 47 42 67 43 29 0 53 10 53 22 0 6 -13
8 -30 6 -40 -6 -38 5 5 31 41 24 45 41 10 41 -18 0 -31 -10 -44 -31 -18 -30
-19 -30 -23 -9 -1 13 -9 26 -17 28 -11 4 -13 -4 -8 -40 9 -64 -10 -79 -36 -28
-10 22 -25 40 -33 40 -17 0 -18 16 -3 26 6 4 32 12 58 19 49 12 55 32 8 27
-17 -1 -26 2 -22 8 3 5 1 10 -4 10 -6 0 -11 11 -11 25 0 34 35 54 116 66 37 5
70 12 73 14 2 3 17 5 33 5 22 0 31 -7 43 -36z m53 3 c27 -25 28 -37 3 -37 -21
0 -51 35 -51 58 0 15 14 9 48 -21z m-1632 -58 c7 -12 -15 -31 -28 -23 -4 3 -8
12 -8 20 0 17 26 19 36 3z m1684 -25 c0 -8 -9 -14 -20 -14 -22 0 -26 10 -8 28
13 13 28 7 28 -14z m-750 7 c0 -5 -7 -14 -15 -21 -8 -7 -15 -16 -15 -21 0 -16
29 -9 49 12 13 15 24 18 35 12 14 -8 96 -111 96 -121 0 -3 -12 -26 -27 -51
-16 -25 -39 -73 -54 -105 -23 -55 -49 -84 -49 -56 0 7 -14 40 -31 73 -22 43
-28 68 -24 86 l7 26 20 -28 c11 -15 26 -27 34 -27 22 0 16 36 -8 53 -23 16
-23 16 -2 16 11 1 29 -8 39 -19 24 -27 35 -25 35 4 0 30 -15 41 -52 38 -35 -3
-37 14 -3 22 34 9 32 26 -2 26 -22 0 -33 -9 -51 -40 -12 -22 -27 -40 -32 -40
-12 0 -24 83 -15 112 4 12 14 31 23 41 16 18 42 23 42 8z m344 -48 c-27 -35
-41 -39 -49 -13 -5 15 0 29 16 46 20 22 25 23 38 9 13 -13 13 -18 -5 -42z
m716 38 c0 -5 -4 -21 -9 -34 -7 -18 -5 -31 10 -53 24 -37 24 -56 -1 -79 -15
-13 -28 -16 -57 -10 -51 9 -55 13 -42 36 9 17 17 19 49 14 22 -4 41 -2 44 4
10 15 -32 34 -60 27 -28 -7 -28 -6 -12 46 8 26 16 37 25 34 8 -3 16 1 19 9 7
16 34 21 34 6z m48 -9 c21 -16 21 -18 6 -41 l-17 -23 -13 32 c-23 54 -16 63
24 32z m-1381 -28 c8 -8 30 -14 49 -14 38 0 41 -6 16 -36 -19 -23 -45 -36 -79
-38 -32 -2 -10 21 28 29 16 4 29 11 29 16 0 17 -41 9 -68 -12 l-27 -21 -3 21
c-2 12 -10 21 -18 21 -9 0 -14 11 -14 31 0 30 1 31 36 24 20 -3 43 -13 51 -21z
m167 -61 c3 -10 10 -45 15 -78 5 -33 12 -72 16 -87 9 -34 -11 -38 -45 -10 -22
18 -22 19 -5 46 22 33 8 57 -18 32 -18 -18 -30 -7 -16 14 5 8 9 26 9 38 0 30
-24 24 -28 -6 -4 -27 -19 -28 -27 -2 -9 28 53 92 77 79 9 -5 19 -17 22 -26z
m1246 -3 c0 -29 -4 -40 -15 -40 -17 0 -20 32 -5 61 16 28 20 24 20 -21z m-182
9 c-2 -6 -8 -10 -13 -10 -5 0 -11 4 -13 10 -2 6 4 11 13 11 9 0 15 -5 13 -11z
m-1598 -31 c84 -31 185 -105 169 -124 -17 -20 -27 -17 -31 9 -4 32 -23 17 -20
-17 2 -28 -12 -56 -29 -56 -5 0 -9 13 -9 29 0 17 -4 33 -10 36 -10 6 -14 -7
-11 -31 1 -9 -9 -10 -36 -3 -21 4 -46 6 -57 3 -13 -4 -17 -2 -14 7 3 9 17 13
38 11 21 -2 30 0 25 7 -3 6 -17 11 -31 11 -16 0 -23 4 -18 11 4 6 20 9 39 6
40 -7 68 8 45 23 -15 10 -40 9 -72 -5 -13 -5 -15 -2 -11 14 5 20 -12 31 -19
12 -1 -5 -20 -12 -40 -16 -46 -9 -51 8 -8 24 17 5 30 13 30 17 0 3 -13 4 -30
2 -32 -5 -44 17 -15 28 8 4 15 13 15 21 0 17 1 17 100 -19z m921 -14 c4 -21
14 -59 23 -83 20 -53 22 -105 4 -97 -7 3 -21 9 -30 12 -14 5 -16 14 -11 49 3
24 1 45 -5 49 -15 9 -35 -21 -29 -44 7 -28 -3 -25 -29 7 l-22 28 25 50 c45 89
64 96 74 29z m-763 14 c-3 -7 -13 -15 -24 -17 -16 -3 -17 -1 -5 13 16 19 34
21 29 4z m832 -9 c0 -11 5 -29 10 -39 11 -20 -5 -70 -22 -70 -5 0 -6 5 -3 10
3 6 -3 22 -14 36 -25 32 -26 42 -4 66 21 24 33 23 33 -3z m-584 -29 c23 0 16
-18 -8 -22 -39 -5 -25 -23 20 -26 23 -2 42 -7 42 -12 0 -9 -66 -7 -118 4 -22
5 -32 13 -32 27 0 10 0 22 0 27 -1 10 74 19 78 10 2 -5 10 -8 18 -8z m1374
-1075 l0 -1065 -452 0 -451 0 -43 25 c-67 40 -112 117 -151 259 -17 67 -33
135 -33 151 -1 17 -7 44 -14 60 -9 21 -10 38 -3 58 10 31 19 34 37 12 7 -8 16
-15 21 -15 15 0 10 32 -8 52 -15 17 -14 18 26 18 30 0 41 4 39 13 -6 16 -56
22 -72 8 -7 -6 -15 -8 -18 -5 -7 6 34 94 43 94 4 0 12 -13 19 -30 16 -39 34
-39 28 0 -5 37 6 39 28 5 17 -26 44 -34 44 -12 0 22 -14 34 -47 42 -35 7 -43
19 -18 29 21 8 19 26 -4 26 -19 0 -91 -71 -91 -90 0 -6 -4 -10 -10 -10 -5 0
-10 5 -10 12 0 6 -7 20 -16 29 -25 28 -34 95 -19 153 7 28 12 66 12 84 0 39
36 82 70 82 21 0 23 -5 23 -45 0 -25 4 -45 9 -45 12 0 23 29 15 41 -3 5 -1 9
5 9 6 0 8 7 5 15 -5 11 1 15 22 15 27 0 27 1 11 17 -14 15 -21 15 -37 6 -11
-7 -22 -9 -25 -4 -7 12 52 101 72 108 8 3 27 -7 44 -23 l29 -28 0 28 0 29 21
-27 c27 -34 43 -34 35 0 l-7 27 31 -27 c35 -29 56 -26 39 5 -5 11 -24 22 -40
26 -28 5 -29 7 -13 24 16 18 16 19 -8 19 -14 0 -31 -7 -38 -15 -13 -16 -40
-21 -40 -7 0 4 5 13 12 20 6 6 9 14 6 18 -12 11 -46 -7 -51 -26 -3 -11 -12
-20 -21 -20 -23 0 -7 29 35 64 40 34 75 42 97 24 28 -24 52 -29 52 -12 0 9 -9
18 -20 21 -23 6 -27 23 -5 23 8 0 24 -13 37 -30 26 -35 38 -38 38 -9 0 11 3
19 8 17 4 -2 19 -10 35 -17 33 -17 43 -10 27 18 -8 15 -20 21 -45 21 -19 0
-35 5 -35 10 0 6 6 10 14 10 13 0 26 20 26 41 0 16 -17 10 -48 -16 -29 -24
-80 -36 -67 -15 3 6 16 10 27 10 20 0 21 1 3 20 -10 11 -24 20 -32 20 -7 0
-13 4 -13 9 0 14 32 23 44 11 13 -13 66 -13 66 0 0 5 -10 15 -22 22 -22 12
-21 13 16 18 22 3 41 11 44 17 6 20 -27 27 -56 12 -15 -7 -31 -15 -35 -17 -5
-3 -4 5 2 16 13 25 14 32 2 32 -16 0 -42 -32 -37 -45 2 -7 -6 -23 -20 -36
l-24 -22 0 31 c0 36 -13 48 -29 28 -8 -9 -10 -28 -6 -50 6 -28 4 -37 -9 -42
-9 -3 -24 -25 -34 -48 -20 -43 -52 -79 -52 -56 0 7 11 25 25 42 14 16 25 34
25 39 0 18 -29 9 -41 -12 -9 -17 -13 -19 -20 -8 -17 27 -9 57 25 98 20 24 42
68 55 109 26 88 123 226 197 283 38 29 53 30 68 6 9 -14 5 -23 -22 -48 -18
-17 -31 -36 -29 -42 7 -23 27 -17 47 15 16 27 20 29 20 12 0 -11 -11 -30 -25
-42 -14 -12 -25 -29 -25 -38 0 -15 2 -15 25 0 35 23 37 20 13 -20 -25 -42 -14
-62 21 -38 19 14 22 22 16 50 -7 38 0 42 27 17 17 -15 18 -15 18 5 0 21 -24
52 -41 52 -5 0 -9 7 -9 17 0 15 1 15 18 0 21 -19 42 -22 42 -7 0 13 -37 50
-50 50 -5 0 -14 10 -21 22 -10 19 -9 20 7 13 11 -4 39 -13 64 -19 52 -14 63
-41 30 -71 -22 -20 -27 -45 -8 -45 6 0 19 7 28 15 16 14 18 14 23 0 4 -9 -5
-27 -23 -45 -17 -17 -30 -35 -30 -40 0 -18 27 -10 42 12 14 20 14 19 14 -28
-1 -37 3 -49 14 -49 11 0 15 12 15 52 -1 46 1 50 16 42 27 -14 41 -11 37 8 -2
11 -15 20 -33 23 -21 4 -31 12 -33 28 -4 26 14 29 46 6 30 -21 37 -13 20 22
-8 19 -24 30 -44 35 -37 7 -54 17 -54 30 0 14 32 10 54 -6 29 -22 40 -18 23 8
-14 22 -13 25 19 51 19 15 34 31 34 36 0 18 -35 10 -48 -10 -17 -27 -32 -25
-32 4 0 14 -4 27 -9 30 -15 10 -34 -23 -27 -48 4 -17 1 -26 -10 -30 -28 -11
-78 -6 -108 9 -15 8 -36 15 -44 15 -25 0 32 52 101 94 67 40 168 66 255 66 73
0 90 -13 94 -69 4 -59 28 -68 28 -11 0 25 4 39 10 35 6 -3 10 -21 10 -38 1
-33 22 -72 33 -60 4 3 7 17 7 30 0 14 4 21 10 18 6 -3 7 -17 4 -29 -6 -25 20
-61 37 -51 16 10 10 50 -11 73 -27 29 -26 32 16 25 34 -6 36 -5 25 15 -14 26
-45 36 -70 22 -15 -8 -26 -7 -41 2 -26 16 -26 28 0 28 26 0 26 16 -1 31 -17 9
-24 8 -36 -4 -12 -12 -21 -12 -44 -4 -16 6 -29 14 -29 18 0 12 105 18 135 8
28 -10 36 -8 80 20 28 17 51 31 53 31 1 0 2 -479 2 -1065z m-1510 1045 c0 -5
-4 -10 -10 -10 -5 0 -10 5 -10 10 0 6 5 10 10 10 6 0 10 -4 10 -10z m-612 -32
c-25 -25 -7 -39 20 -16 30 26 39 28 53 11 12 -14 11 -15 -8 -9 -12 4 -24 2
-27 -3 -4 -5 3 -12 14 -16 11 -3 20 -13 20 -21 0 -11 -7 -13 -27 -8 l-28 7 23
-25 c26 -29 32 -79 6 -58 -8 8 -21 28 -29 46 -7 18 -23 35 -34 39 -12 3 -21 9
-21 13 0 17 41 72 50 67 5 -3 0 -15 -12 -27z m-45 -17 c-4 -31 -1 -43 16 -60
22 -22 12 -28 -20 -11 -10 6 -19 17 -19 25 0 8 -8 18 -17 24 -17 9 -16 12 6
35 33 35 40 33 34 -13z m317 4 c0 -11 -24 -55 -30 -55 -10 0 -18 32 -13 48 4
11 43 18 43 7z m339 -8 c6 -8 8 -17 4 -20 -7 -8 -33 11 -33 24 0 13 16 11 29
-4z m-433 -42 c104 -67 114 -75 114 -85 0 -6 -9 -10 -20 -10 -10 0 -24 -9 -30
-20 -9 -17 -8 -20 10 -20 11 0 20 -5 20 -11 0 -7 10 0 21 15 24 31 48 22 30
-11 -19 -37 -35 -44 -67 -29 -16 8 -45 16 -64 17 -50 4 -54 8 -32 33 22 24 33
51 25 60 -9 8 -43 -24 -43 -41 0 -18 -10 -16 -26 5 -13 16 -13 16 -14 -1 0
-31 -20 -8 -20 24 0 22 5 29 19 29 10 0 24 7 31 15 11 13 8 15 -19 15 -17 0
-31 5 -31 11 0 7 12 8 33 4 l32 -6 -22 20 c-21 17 -29 31 -19 31 2 0 34 -20
72 -45z m403 14 c31 -29 38 -53 47 -149 l7 -83 -39 6 c-39 6 -78 40 -71 61 2
6 20 10 42 8 25 -3 35 0 31 7 -4 6 -14 11 -22 11 -18 0 -17 10 1 34 8 11 15
26 15 33 0 22 -19 14 -34 -14 -12 -24 -15 -26 -21 -10 -12 28 -28 20 -22 -12
4 -17 0 -36 -8 -47 -13 -18 -15 -17 -29 16 -12 30 -12 37 0 51 14 16 19 39 8
39 -4 0 -13 -8 -20 -17 -12 -16 -13 -16 -14 -2 0 9 9 24 19 33 16 14 29 16 63
11 39 -7 41 -6 29 9 -7 9 -22 16 -33 16 -10 0 -16 5 -13 10 10 16 40 11 64
-11z m161 8 c45 -16 40 -32 -10 -32 -41 0 -56 -18 -20 -23 17 -3 19 -6 9 -18
-29 -36 -69 -4 -69 55 0 27 3 31 28 30 15 0 43 -5 62 -12z m448 -23 c2 -1 -7
-13 -20 -26 -20 -20 -20 -23 -6 -26 9 -2 29 4 43 14 19 12 29 14 37 6 8 -8 7
-13 -5 -18 -21 -7 -22 -34 -3 -59 12 -17 14 -16 25 18 15 44 45 50 62 13 23
-49 3 -86 -97 -190 -92 -95 -96 -98 -114 -81 -11 10 -31 55 -46 101 l-25 83
46 90 c44 86 48 91 73 85 15 -4 29 -8 30 -10z m-848 -11 c51 -4 60 -10 40 -24
-11 -8 -12 -12 -2 -16 17 -7 15 -32 -3 -39 -10 -4 -33 10 -63 37 -52 48 -65
66 -36 54 11 -4 39 -10 64 -12z m1165 -3 c-3 -5 -17 -10 -31 -10 -14 0 -22 4
-19 10 3 6 17 10 31 10 14 0 22 -4 19 -10z m-636 -20 c43 -20 44 -21 26 -40
-11 -12 -24 -19 -29 -17 -16 6 -56 -11 -56 -23 0 -5 11 -10 25 -10 23 0 24 -2
15 -20 -6 -11 -17 -20 -24 -20 -8 0 -20 -8 -27 -17 -13 -15 -12 -16 9 -11 15
4 22 2 22 -8 0 -8 -4 -14 -10 -14 -15 0 -12 -36 4 -49 10 -9 15 -8 20 4 3 8 3
21 0 29 -3 8 -1 17 5 21 6 3 11 1 11 -4 0 -6 4 -11 10 -11 6 0 7 18 3 45 -4
31 -2 45 6 45 6 0 11 -6 11 -14 0 -15 29 -30 38 -21 3 3 -2 19 -12 36 -17 28
-17 32 -2 47 14 14 17 14 35 -2 38 -34 35 -60 -20 -180 -50 -110 -52 -112 -80
-108 -20 3 -37 -2 -51 -14 -21 -19 -21 -19 -14 9 9 39 -2 52 -24 25 l-18 -23
-11 45 c-6 25 -20 71 -30 103 -12 40 -16 69 -11 90 8 31 8 31 9 5 1 -33 17
-44 29 -21 6 11 6 25 0 39 -11 25 -5 54 12 54 5 0 9 -3 9 -7 -3 -19 2 -33 11
-33 6 0 10 17 10 38 0 21 3 42 7 45 12 12 47 7 92 -13z m543 -53 c-18 -17 -32
-27 -32 -21 0 16 50 67 58 60 3 -4 -8 -21 -26 -39z m-722 -1 c0 -2 -7 -9 -15
-16 -12 -10 -15 -10 -15 4 0 9 7 16 15 16 8 0 15 -2 15 -4z m-242 -29 c2 -11
-3 -17 -17 -17 -25 0 -38 19 -20 31 19 12 33 6 37 -14z m-27 -39 c48 -14 49
-30 4 -57 -19 -11 -35 -28 -35 -37 0 -14 3 -14 15 -4 18 15 30 7 22 -15 -4 -8
-16 -15 -27 -15 -12 0 -25 -10 -32 -25 -6 -14 -19 -25 -29 -25 -9 0 -24 -3
-33 -6 -37 -14 4 126 51 178 19 21 16 21 64 6z m-157 -45 c9 -22 -24 -133 -40
-133 -6 0 -15 15 -18 33 -7 31 -7 31 -22 12 -8 -11 -13 -31 -11 -45 5 -26 -17
-80 -33 -80 -5 0 -25 21 -45 46 -26 36 -35 57 -35 87 0 33 3 38 18 32 9 -4 28
-10 41 -13 30 -6 25 18 -7 33 -47 21 -2 41 99 44 36 1 48 -3 53 -16z m263 -13
c14 -11 40 -20 58 -20 55 0 102 -69 93 -136 l-4 -29 -14 28 c-14 29 -30 36
-30 12 0 -8 -3 -15 -7 -15 -14 0 -53 44 -53 61 0 19 -25 49 -42 49 -10 0 -8
-16 7 -53 5 -13 4 -18 -6 -17 -34 5 -50 -2 -61 -25 -17 -38 -2 -42 33 -9 l31
29 -8 -30 c-7 -30 -7 -30 14 -12 22 20 53 20 60 -1 3 -9 -3 -11 -22 -6 -16 4
-26 2 -26 -5 0 -6 3 -11 8 -11 19 0 72 -60 66 -74 -9 -25 -21 -19 -35 17 l-13
32 -3 -28 c-5 -35 -23 -25 -23 13 0 16 -4 32 -10 35 -10 6 -14 -7 -11 -32 1
-9 -9 -6 -31 6 -25 14 -39 17 -57 10 -37 -14 -10 -39 35 -32 22 4 34 2 34 -6
0 -6 -9 -11 -19 -11 -11 0 -23 -5 -26 -11 -5 -6 9 -9 39 -8 55 3 68 -6 38 -27
-22 -15 -30 -44 -12 -44 5 0 15 9 22 20 14 23 48 27 48 7 0 -21 -31 -43 -67
-50 -28 -6 -33 -4 -33 13 0 23 -18 36 -25 18 -3 -8 11 -49 30 -92 27 -57 39
-100 45 -160 8 -75 7 -82 -12 -98 -27 -24 -73 -23 -98 2 -22 22 -21 21 -25 95
-1 28 -5 61 -9 75 -6 21 -3 28 18 40 14 7 26 19 26 27 0 19 -37 16 -44 -3 -9
-23 -18 -11 -25 31 -6 39 -24 48 -29 16 -3 -17 -7 -18 -33 -9 -32 11 -64 4
-54 -12 3 -5 17 -10 31 -10 26 0 31 -9 12 -28 -9 -9 -7 -13 6 -18 10 -4 22 -2
29 5 23 23 30 10 7 -14 -26 -28 -20 -46 10 -27 23 14 26 10 35 -50 6 -37 4
-48 -6 -48 -18 1 -80 55 -118 104 -38 48 -42 109 -10 150 l20 26 29 -22 c33
-24 51 -17 32 12 -16 26 -8 25 27 -1 36 -26 62 -16 29 11 l-23 19 36 -6 c21
-3 39 -1 43 5 9 14 -11 25 -44 24 -23 0 -27 3 -22 20 7 28 -19 20 -33 -10 -5
-11 -17 -23 -27 -25 -15 -4 -17 -1 -12 19 9 37 -14 29 -33 -11 -9 -19 -20 -35
-25 -35 -11 0 -10 2 7 43 8 20 15 50 15 67 0 21 5 30 16 30 11 0 14 6 9 20
-11 35 15 22 31 -16 8 -19 20 -34 26 -32 22 8 19 27 -6 53 -26 26 -27 45 -2
45 8 0 19 7 26 15 20 24 26 18 22 -24 -2 -21 1 -42 7 -45 7 -5 11 8 11 38 0
47 7 55 28 34 16 -16 17 5 1 33 -6 12 -8 28 -4 37 5 13 8 12 21 -6 15 -22 44
-30 44 -13 0 5 -11 23 -25 39 -37 44 -6 60 42 22z m524 -151 c16 -44 29 -91
29 -105 0 -54 -51 -114 -97 -114 -17 0 -23 7 -29 35 -11 60 1 177 26 239 26
68 26 68 71 -55z m-1328 75 c3 -4 -4 -15 -16 -24 -33 -27 -12 -37 23 -12 46
35 88 26 47 -10 -24 -21 -21 -21 45 5 21 8 31 8 39 0 10 -10 6 -15 -15 -23
-15 -5 -36 -10 -46 -10 -25 0 -50 -10 -50 -21 0 -5 14 -9 31 -9 27 0 30 -2 19
-15 -7 -8 -20 -15 -29 -15 -10 0 -26 -7 -37 -15 -18 -14 -17 -14 14 -15 32 0
33 -1 18 -22 -17 -24 -22 -68 -8 -68 18 0 32 26 33 60 0 35 0 35 16 13 24 -35
35 -27 18 14 -9 21 -12 40 -6 46 5 5 11 -2 15 -17 3 -14 11 -26 16 -26 16 0
21 19 10 40 -8 14 -8 26 1 41 9 17 17 20 47 15 171 -25 187 -34 219 -127 13
-35 23 -67 23 -71 0 -4 -16 -4 -37 -1 -44 7 -38 -12 7 -22 23 -5 30 -12 30
-30 l0 -24 -42 18 c-30 12 -43 24 -44 39 -2 34 -12 52 -30 52 -13 0 -15 -7
-10 -36 7 -33 6 -35 -14 -24 -15 8 -19 17 -14 35 3 14 3 37 0 51 -6 22 -9 24
-22 13 -10 -8 -13 -21 -9 -37 6 -25 6 -25 -19 -9 -30 20 -90 23 -84 5 3 -7 21
-14 41 -16 44 -4 74 -32 33 -32 -17 0 -26 -5 -26 -15 0 -21 29 -31 51 -17 13
8 26 9 45 2 l27 -11 -23 -24 c-13 -14 -28 -21 -38 -18 -15 6 -15 -6 3 -50 10
-24 -22 -12 -53 19 -13 13 -27 24 -32 24 -17 0 -11 -32 8 -46 15 -12 14 -14
-15 -24 -18 -7 -35 -21 -39 -32 -9 -30 1 -31 34 -3 38 32 44 31 36 -1 -5 -20
-3 -25 7 -22 7 2 16 15 19 29 4 16 14 25 30 28 24 3 24 2 7 -16 -35 -39 -13
-45 30 -9 27 23 48 30 86 27 23 -1 22 -21 -2 -21 -11 0 -29 -12 -40 -27 -23
-29 -21 -43 4 -23 9 7 18 10 21 7 13 -13 -6 -37 -41 -51 -19 -8 -35 -19 -35
-25 0 -14 23 -19 43 -9 15 7 17 4 17 -26 0 -50 9 -69 26 -55 17 14 18 33 2 59
-18 29 -1 36 21 9 20 -23 20 -23 21 -3 0 12 -8 32 -19 45 -12 16 -16 31 -11
44 6 18 9 17 24 -13 9 -17 21 -32 26 -32 17 0 11 30 -11 61 -26 37 -18 49 32
49 32 0 47 -7 85 -42 39 -36 74 -84 74 -102 0 -13 -30 7 -35 23 -8 25 -45 62
-55 56 -12 -7 -1 -37 19 -52 13 -10 9 -12 -26 -13 -47 0 -60 -11 -37 -30 11
-10 18 -10 26 -2 7 7 21 12 32 12 18 0 18 -1 3 -18 -30 -33 -19 -47 12 -18 18
17 36 26 45 23 13 -5 11 -11 -10 -32 -34 -34 -23 -45 16 -17 34 25 48 27 73 8
26 -20 21 -25 -24 -23 -26 1 -44 -3 -46 -10 -3 -8 4 -13 16 -13 11 0 23 -4 26
-10 4 -6 -10 -10 -34 -10 -22 0 -43 -4 -46 -10 -4 -6 6 -10 22 -10 l28 0 -32
-26 c-35 -27 -43 -54 -18 -54 9 0 24 13 33 30 21 37 32 38 32 4 0 -14 4 -23
10 -19 6 3 10 21 10 40 0 19 5 37 10 40 6 3 10 0 10 -7 0 -8 7 -23 15 -34 15
-18 15 -16 13 21 -3 52 4 62 49 69 21 3 55 8 76 12 29 5 37 3 37 -9 0 -19 -27
-30 -66 -28 -18 1 -35 -3 -39 -9 -9 -14 14 -32 33 -25 26 9 11 -25 -22 -50
-54 -41 -62 -84 -10 -50 25 16 27 16 21 0 -16 -41 -17 -61 -3 -80 11 -15 18
-17 26 -9 9 9 8 22 -1 53 -7 23 -9 44 -4 49 4 4 9 3 12 -3 9 -24 23 -39 30
-32 4 5 -2 25 -13 45 -21 36 -22 62 -3 62 5 0 9 -9 9 -20 0 -10 9 -24 20 -30
17 -9 20 -8 20 7 0 10 -7 29 -16 41 -15 21 -15 25 2 43 24 27 64 21 83 -12 13
-23 13 -39 3 -105 -15 -96 -16 -142 -6 -354 7 -164 -5 -362 -27 -442 -7 -27
-21 -45 -55 -67 l-45 -31 -470 0 -469 0 0 853 0 854 48 10 c60 13 77 14 85 7z
m497 -221 c-12 -43 -24 -85 -27 -93 -3 -8 -12 26 -20 75 -9 62 -10 97 -3 113
9 22 30 31 30 13 0 -5 7 -12 16 -15 13 -5 14 -1 9 24 -4 16 -3 35 2 42 18 28
13 -85 -7 -159z m448 68 c3 -16 -1 -22 -10 -19 -7 3 -15 15 -16 27 -3 16 1 22
10 19 7 -3 15 -15 16 -27z m202 19 c0 -16 -33 -80 -42 -80 -8 0 -12 15 -9 36
1 6 -6 17 -14 24 -25 21 -17 30 25 30 22 0 40 -4 40 -10z m-118 -68 c25 -42
36 -134 31 -247 -8 -160 -36 -195 -135 -165 -38 11 -60 34 -72 77 -8 27 16 42
82 52 49 7 71 31 28 31 -39 0 -31 18 19 42 25 12 45 25 45 29 0 16 -20 20 -41
8 -12 -6 -20 -7 -17 -2 2 4 10 20 17 35 8 15 11 34 7 44 -6 16 -8 16 -26 -1
-12 -10 -20 -31 -20 -49 l-1 -31 -15 28 c-8 15 -19 27 -24 27 -18 0 -10 -50
10 -62 22 -14 26 -33 9 -43 -6 -4 -17 2 -25 14 -29 41 -40 23 -23 -38 9 -30
-18 -19 -29 12 -19 52 -14 83 16 119 16 18 41 54 56 81 27 47 46 60 46 32 0
-19 32 -36 49 -26 9 6 10 11 2 15 -6 4 -16 16 -21 27 -17 32 13 23 32 -9z
m-215 -139 c-9 -9 -20 -14 -24 -10 -3 4 2 14 13 21 25 19 33 10 11 -11z m-434
-4 c33 -17 67 -51 67 -66 0 -10 -19 -13 -75 -13 -68 0 -75 2 -75 20 0 11 5 20
10 20 6 0 15 11 20 25 11 28 21 30 53 14z m1137 -13 c0 -21 -22 -54 -39 -59
-26 -6 -28 18 -4 45 14 16 43 25 43 14z m-170 -55 c0 -5 -7 -14 -15 -21 -16
-13 -21 -50 -6 -50 5 0 16 10 25 23 16 21 16 21 10 -18 -8 -50 -49 -145 -63
-145 -18 0 -26 5 -23 13 1 5 3 36 3 70 1 67 29 137 54 137 8 0 15 -4 15 -9z
m-685 -201 c14 -16 15 -20 4 -20 -16 0 -39 19 -39 32 0 14 16 9 35 -12z m581
-451 c4 -22 0 -41 -10 -54 -14 -19 -15 -16 -16 45 0 68 16 74 26 9z m-153
-357 c9 -8 17 -23 17 -34 0 -23 6 -23 32 2 29 27 64 25 83 -4 18 -28 12 -51
-41 -137 -18 -31 -34 -64 -34 -73 0 -25 -15 -19 -69 27 -97 83 -123 208 -48
236 23 9 32 7 60 -17z"/>
<path d="M990 3671 c0 -31 20 -60 43 -61 16 0 6 41 -18 67 l-24 28 -1 -34z"/>
<path d="M1738 1803 c-9 -2 -17 -12 -17 -21 0 -9 -3 -30 -7 -46 -5 -22 -4 -28
7 -24 7 2 17 19 21 36 7 26 14 32 35 32 21 0 24 2 13 15 -13 15 -21 16 -52 8z"/>
<path d="M1759 1728 c7 -36 25 -47 35 -22 4 10 -1 25 -10 35 -25 27 -32 23
-25 -13z"/>
</g>
</svg>
